<?xml version="1.0" encoding="utf-8"?>
<!-- Generator: Adobe Illustrator 24.3.0, SVG Export Plug-In . SVG Version: 6.00 Build 0)  -->
<svg version="1.1" id="Layer_1" xmlns="http://www.w3.org/2000/svg" xmlns:xlink="http://www.w3.org/1999/xlink" x="0px" y="0px"
	 viewBox="0 0 140 140" style="enable-background:new 0 0 140 140;" xml:space="preserve">
<style type="text/css">
	.st0{fill:#009D9C;}
	.st1{fill:#2F469C;}
	.st2{fill:#FFFFFF;}
	.st3{fill-rule:evenodd;clip-rule:evenodd;fill:#FF6352;}
	.st4{fill-rule:evenodd;clip-rule:evenodd;fill:#2989D4;}
	.st5{fill-rule:evenodd;clip-rule:evenodd;fill:#5F378B;}
	.st6{fill:#001327;}
	.st7{fill:#BF0000;}
	.st8{fill:#AA1129;}
	.st9{fill:#444444;}
	.st10{fill:#AA1029;}
	.st11{fill:url(#SVGID_1_);}
	.st12{fill:#241C50;}
	.st13{fill:#251D51;}
	.st14{fill:#262C30;}
	.st15{fill:#44B02D;}
	.st16{fill:#0000FF;}
	.st17{fill-rule:evenodd;clip-rule:evenodd;fill:#2A0B57;}
	.st18{fill:#0050AA;}
	.st19{fill:#FFF000;}
	.st20{fill:#E60A14;}
	.st21{fill:#E3032E;}
	.st22{fill:#A8C20B;}
	.st23{fill:#00A082;}
	.st24{fill:#FFCC1B;}
	.st25{fill:#110340;}
	.st26{fill:#2989D4;}
	.st27{fill:url(#SVGID_2_);}
	.st28{fill:#5F378B;}
	.st29{fill:url(#SVGID_3_);}
	.st30{fill:url(#SVGID_4_);}
	.st31{fill:#1A1311;}
	.st32{fill:#00309B;}
	.st33{fill:#1946A9;}
	.st34{fill:#042C86;}
	.st35{fill:#0435A1;}
</style>
<g>
	<path class="st17" d="M26.71,70.05c0.05-9.72,7.78-17.53,17.97-17.53c8.63,0,15.56,4.93,16.72,13.23h-6.53
		c-1.1-4.54-4.42-7.72-10.19-7.72c-5.68,0-11.4,4.25-11.4,12.01c0,7.76,5.72,11.87,11.4,11.87c6.38,0,9.28-3.42,10.29-7.38h6.43
		c-1.41,8.3-8.08,12.94-16.72,12.94C34.49,87.49,26.66,80.21,26.71,70.05z M71.06,56.33c0,1.95-1.76,3.66-3.81,3.66
		c-2.06,0-3.81-1.71-3.81-3.66c0-2.05,1.76-3.81,3.81-3.81C69.3,52.52,71.06,54.28,71.06,56.33z M64.19,62.48h6.18v24.61h-6.18
		V62.48z M80.3,62.48V65c2.44-2.18,5.45-2.91,7.88-2.91c5.72,0,9.44,4,9.44,9.77v15.24h-6.17V73.13c0-3.37-2.11-5.71-5.27-5.71
		c-3.46,0-5.87,2.64-5.87,6.25v13.43h-6.17V62.48H80.3z M113.29,62.48h-6.39v-7.42h-6.17V78.5c0,5.47,3.61,8.6,9.14,8.6h3.43v-5.42
		h-2.73c-2.31,0-3.67-1.27-3.67-3.76v-10.4h6.39V62.48z"/>
</g>
</svg>
