<?xml version="1.0" encoding="utf-8"?>
<!-- Generator: Adobe Illustrator 24.3.0, SVG Export Plug-In . SVG Version: 6.00 Build 0)  -->
<svg version="1.1" id="Layer_1" xmlns="http://www.w3.org/2000/svg" xmlns:xlink="http://www.w3.org/1999/xlink" x="0px" y="0px"
	 viewBox="0 0 140 140" style="enable-background:new 0 0 140 140;" xml:space="preserve">
<style type="text/css">
	.st0{fill:#009D9C;}
	.st1{fill:#2F469C;}
	.st2{fill:#FFFFFF;}
	.st3{fill-rule:evenodd;clip-rule:evenodd;fill:#FF6352;}
	.st4{fill-rule:evenodd;clip-rule:evenodd;fill:#2989D4;}
	.st5{fill-rule:evenodd;clip-rule:evenodd;fill:#5F378B;}
	.st6{fill:#001327;}
	.st7{fill:#BF0000;}
	.st8{fill:#AA1129;}
	.st9{fill:#444444;}
	.st10{fill:#AA1029;}
	.st11{fill:url(#SVGID_1_);}
	.st12{fill:#241C50;}
	.st13{fill:#251D51;}
	.st14{fill:#262C30;}
	.st15{fill:#44B02D;}
	.st16{fill:#0000FF;}
	.st17{fill-rule:evenodd;clip-rule:evenodd;fill:#2A0B57;}
	.st18{fill:#0050AA;}
	.st19{fill:#FFF000;}
	.st20{fill:#E60A14;}
	.st21{fill:#E3032E;}
	.st22{fill:#A8C20B;}
	.st23{fill:#00A082;}
	.st24{fill:#FFCC1B;}
	.st25{fill:#110340;}
	.st26{fill:#2989D4;}
	.st27{fill:url(#SVGID_2_);}
	.st28{fill:#5F378B;}
	.st29{fill:url(#SVGID_3_);}
	.st30{fill:url(#SVGID_4_);}
	.st31{fill:#1A1311;}
	.st32{fill:#00309B;}
	.st33{fill:#1946A9;}
	.st34{fill:#042C86;}
	.st35{fill:#0435A1;}
</style>
<g>
	<path class="st18" d="M8.02,8.02h123.96v123.96H8.02V8.02z"/>
	<path class="st2" d="M131.98,8.02v123.96H8.02V8.02H131.98z M133.03,6.97H6.97v126.06h126.06V6.97z"/>
	<path class="st19" d="M70,14.95c-30.25,0-54.84,24.79-54.84,55.05S39.75,125.05,70,125.05s54.84-24.58,55.05-54.84l0,0
		C125.05,39.75,100.25,15.16,70,14.95C70,15.16,70,15.16,70,14.95z"/>
	<path class="st20" d="M66.64,71.47l-9.66-9.66L45.84,72.94v3.78l2.73-2.73l7.77,7.77l-2.94,2.94l1.89,1.89l15.55-15.55v-3.78
		L66.64,71.47L66.64,71.47z"/>
	<path class="st18" d="M21.26,59.71h17.23v3.78h-2.94v11.98L45.63,70v10.29H21.26v-3.78h2.94V63.49h-2.94
		C21.26,63.49,21.26,59.71,21.26,59.71z M94.16,59.71v3.78h2.94v13.03h-2.94v3.78h24.37V70l-10.08,5.46V63.49h2.94v-3.78
		L94.16,59.71L94.16,59.71z"/>
	<path class="st20" d="M55.5,48.15c3.36,0,6.09,2.73,6.09,6.09s-2.73,6.09-6.09,6.09s-6.09-2.73-6.09-6.09l0,0l0,0l0,0
		C49.41,50.88,52.14,48.15,55.5,48.15L55.5,48.15L55.5,48.15z"/>
	<path class="st20" d="M70,11.38L70,11.38c-32.36,0-58.62,26.26-58.62,58.62S37.64,128.62,70,128.62s58.62-26.26,58.62-58.62l0,0
		C128.62,37.64,102.36,11.38,70,11.38L70,11.38z M70,125.05c-30.25,0-54.84-24.79-54.84-55.05S39.75,15.16,70,15.16
		S125.05,39.75,125.05,70l0,0l0,0C124.84,100.25,100.25,124.84,70,125.05L70,125.05L70,125.05z"/>
	<path class="st18" d="M84.5,59.71H68.11v3.78h2.94v13.03h-2.94v3.78H84.5C96.68,80.29,96.89,59.71,84.5,59.71z"/>
	<path class="st19" d="M82.19,73.78h-0.84v-7.77h0.63C85.76,66.22,85.76,73.78,82.19,73.78L82.19,73.78z"/>
</g>
</svg>
