<?xml version="1.0" encoding="utf-8"?>
<!-- Generator: Adobe Illustrator 24.3.0, SVG Export Plug-In . SVG Version: 6.00 Build 0)  -->
<svg version="1.1" id="Layer_1" xmlns="http://www.w3.org/2000/svg" xmlns:xlink="http://www.w3.org/1999/xlink" x="0px" y="0px"
	 viewBox="0 0 140 140" style="enable-background:new 0 0 140 140;" xml:space="preserve">
<style type="text/css">
	.st0{fill:#009D9C;}
	.st1{fill:#2F469C;}
	.st2{fill:#FFFFFF;}
	.st3{fill-rule:evenodd;clip-rule:evenodd;fill:#FF6352;}
	.st4{fill-rule:evenodd;clip-rule:evenodd;fill:#2989D4;}
	.st5{fill-rule:evenodd;clip-rule:evenodd;fill:#5F378B;}
	.st6{fill:#001327;}
	.st7{fill:#BF0000;}
	.st8{fill:#AA1129;}
	.st9{fill:#444444;}
	.st10{fill:#AA1029;}
	.st11{fill:url(#SVGID_1_);}
	.st12{fill:#241C50;}
	.st13{fill:#251D51;}
	.st14{fill:#262C30;}
	.st15{fill:#44B02D;}
	.st16{fill:#0000FF;}
	.st17{fill-rule:evenodd;clip-rule:evenodd;fill:#2A0B57;}
	.st18{fill:#0050AA;}
	.st19{fill:#FFF000;}
	.st20{fill:#E60A14;}
	.st21{fill:#E3032E;}
	.st22{fill:#A8C20B;}
	.st23{fill:#00A082;}
	.st24{fill:#FFCC1B;}
	.st25{fill:#110340;}
	.st26{fill:#2989D4;}
	.st27{fill:url(#SVGID_2_);}
	.st28{fill:#5F378B;}
	.st29{fill:url(#SVGID_3_);}
	.st30{fill:url(#SVGID_4_);}
	.st31{fill:#1A1311;}
	.st32{fill:#00309B;}
	.st33{fill:#1946A9;}
	.st34{fill:#042C86;}
	.st35{fill:#0435A1;}
</style>
<g>
	<path class="st22" d="M8.77,86.2l58.79-1.05c0,0,2.06-0.15,5.54,0l58.13,1.13l-57.89,1.24h-5.86L8.77,86.2z"/>
	<path d="M42.1,69.78c0.33-0.19,0.69-0.33,0.97-0.57c1.45-1.19,2.87-2.41,4.32-3.59c0.46-0.37,0.96-0.7,1.49-0.96
		c0.21-0.11,0.54,0.01,0.81,0.03c-0.02,0.26,0.02,0.55-0.07,0.79c-0.43,1.14-0.92,2.26-1.35,3.41c-0.12,0.32-0.13,0.68-0.23,1.24
		c0.59-0.25,1-0.38,1.37-0.59c2.6-1.48,5.18-3,7.8-4.44c1.09-0.6,2.25-1.07,3.4-1.55c0.28-0.11,0.64-0.03,0.96-0.03
		c-0.03,0.29-0.05,0.58-0.08,0.88c-0.03,0.31-0.13,0.62-0.11,0.92c0.13,1.4,0.23,2.8-0.42,4.17c0.14,0.01,0.23,0.04,0.27,0.01
		c2.08-1.33,4.22-2.56,6.2-4.02c1.61-1.19,3.3-1.96,5.3-1.98c0.56-0.01,1.38,0.01,1.34,0.71c-0.03,0.61-0.57,1.2-0.92,1.78
		c-0.03,0.05-0.27-0.03-0.41-0.05c-0.94-0.09-1.91-0.35-2.83-0.23c-2.17,0.29-2.87,2.06-1.66,3.92c1.48-0.87,2.93-1.79,4.44-2.58
		c1.42-0.74,2.92-1.36,4.39-2.01c0.33-0.14,0.7-0.19,1.06-0.24c0.79-0.11,1.09,0.17,1.11,0.98c0,0.18,0,0.36,0,0.69
		c0.31-0.22,0.56-0.38,0.79-0.55c2.22-1.73,4.66-2.19,7.35-1.27c0.37,0.13,0.75,0.21,1.13,0.32c0.86,0.25,1.64,0.18,2.48-0.23
		c0.9-0.44,1.89-0.74,2.87-0.96c0.77-0.17,1.07,0.15,1,0.95c-0.08,0.8-0.25,1.59-0.38,2.39c-0.06,0.41-0.14,0.82-0.14,1.24
		c-0.01,0.79,0.28,1.01,1,0.75c0.39-0.14,0.79-0.3,1.11-0.55c1.18-0.89,2.43-1.69,3-3.18c0.27-0.73,0.94-1.08,1.71-1.2
		c0.62-0.1,0.82,0.14,0.68,0.74c-0.28,1.14-0.54,2.28-0.8,3.42c-0.04,0.17-0.04,0.36-0.08,0.68c0.25-0.17,0.42-0.25,0.56-0.38
		c0.74-0.7,1.51-1.37,2.18-2.13c0.45-0.5,0.8-1.11,1.1-1.72c0.42-0.86,1.04-1.43,1.98-1.6c0.22-0.04,0.58,0.04,0.69,0.19
		c0.11,0.16,0.06,0.5-0.02,0.72c-0.1,0.26-0.27,0.51-0.47,0.71c-0.49,0.47-0.43,0.94-0.12,1.47c0.6,1.03,1.53,1.5,2.73,1.65
		c0.79-1.79,2.03-3.17,3.84-3.91c0.82-0.34,1.75-0.54,2.63-0.58c1.37-0.06,2.01,0.99,1.51,2.28c-0.4,1.02-1.21,1.68-2.12,2.21
		c-0.54,0.31-1.11,0.57-1.69,0.8c-0.55,0.22-1.14,0.37-1.95,0.62c0.5,0.32,0.84,0.68,1.23,0.76c0.89,0.17,1.81,0.36,2.7,0.27
		c2.77-0.29,5.51-0.76,8.28-1.04c1.49-0.15,3-0.17,4.5-0.08c0.97,0.06,1.4,0.55,1.61,1.3c-2.83-0.87-5.55,0.02-8.3,0.46
		c-2.59,0.41-5.18,0.83-7.79,1.1c-0.93,0.1-1.92-0.13-2.84-0.36c-0.95-0.24-1.63-0.88-1.84-1.92c-0.04-0.19-0.35-0.41-0.57-0.45
		c-1.91-0.4-2.64-0.8-3.85-2.14c-1.14,1.05-2.27,2.13-3.44,3.16c-0.54,0.48-1.14,0.91-1.77,1.28c-0.83,0.49-1.24,0.24-1.35-0.73
		c-0.04-0.33-0.02-0.68-0.01-1.01c0.02-0.33,0.07-0.67,0.13-1.19c-0.35,0.3-0.57,0.5-0.81,0.68c-0.88,0.65-1.71,1.38-2.65,1.91
		c-2.01,1.13-3.11,0.56-3.5-1.78c-0.49,0.34-0.92,0.72-1.41,0.97c-1.17,0.6-2.32,1.31-3.57,1.67c-1.51,0.44-2.32-0.53-1.69-1.98
		c0.43-0.97,1.19-1.81,1.82-2.68c0.16-0.22,0.42-0.38,0.65-0.59c-4-1.65-7.09-0.79-9.19,3.18c-0.19,0.37-0.34,0.78-0.59,1.1
		c-0.28,0.36-0.62,0.79-1.02,0.9c-0.47,0.12-1.17,0.11-1.51-0.17c-0.5-0.4-0.04-0.95,0.26-1.37c0.38-0.53,0.84-1,1.21-1.53
		c0.29-0.42,0.56-0.88,0.74-1.36c0.19-0.49-0.04-0.75-0.58-0.67c-0.18,0.02-0.36,0.06-0.53,0.12c-2.55,0.89-4.85,2.23-7.15,3.67
		c0.05,0.14,0.07,0.24,0.13,0.32c1.33,1.88,1.24,3.85,0.33,5.85c-0.86,1.89-2.11,3.47-3.78,4.69c-1.67,1.21-3.66,1.23-5.08,0.11
		c-1-0.79-1.47-1.83-1-3.03c0.39-1,0.88-2.03,1.59-2.82c1.31-1.47,2.82-2.76,4.24-4.13c0.2-0.19,0.44-0.35,0.59-0.47
		c-0.22-0.93-0.42-1.77-0.63-2.66c-0.52,0.32-1.07,0.71-1.66,1.02c-1.52,0.78-3.04,1.59-4.61,2.26c-1.32,0.57-2.74,0.6-4.14,0.26
		c-0.32-0.08-0.65-0.21-0.93-0.39c-0.73-0.48-0.81-1.27-0.16-1.84c0.39-0.34,0.9-0.56,1.39-0.86c0.09,0.22,0.15,0.31,0.17,0.41
		c0.18,0.76,0.57,1.28,1.42,1.31c0.85,0.03,1.63-0.38,1.84-1.27c0.29-1.2,0.37-2.44,0.53-3.66c-0.08-0.04-0.15-0.08-0.23-0.12
		c-0.29,0.14-0.6,0.26-0.88,0.42c-2.4,1.41-4.78,2.85-7.21,4.21c-1.08,0.61-2.21,1.19-3.39,1.54c-1.56,0.47-2.23-0.26-1.9-1.85
		c0.09-0.43,0.2-0.85,0.34-1.46c-0.35,0.28-0.57,0.48-0.81,0.64c-1.2,0.82-2.34,1.76-3.62,2.42c-1.82,0.95-2.4,0.49-2.25-1.65
		c-0.23,0.16-0.39,0.3-0.57,0.4c-1.29,0.7-2.52,1.59-3.9,2.05c-1.93,0.65-3.1-0.28-3-2.31c0.09-1.72,0.47-3.43,0.72-5.17
		c-0.09,0.11-0.22,0.27-0.36,0.41c-1.69,1.69-3.34,3.43-5.1,5.03c-0.69,0.63-1.6,1.07-2.48,1.4c-0.88,0.33-1.42-0.1-1.31-1.04
		c0.15-1.2,0.46-2.39,0.79-3.56c0.27-0.96,0.67-1.88,0.88-2.91c-0.24,0.27-0.45,0.55-0.71,0.8c-1.82,1.74-3.55,3.59-5.5,5.18
		c-1.89,1.55-4.18,2.18-6.66,1.84c-0.48-0.07-0.98-0.2-1.41-0.42c-0.93-0.45-1.07-1.25-0.39-2.04c0.27-0.31,0.6-0.56,0.94-0.86
		c1.1,1.57,2.6,1.41,4.1,1.03c1.7-0.43,3.11-1.44,4.42-2.57c3.76-3.24,6.76-7.12,9.52-11.21c0.35-0.52,0.7-1.04,1.11-1.51
		c0.25-0.29,0.57-0.59,0.92-0.69c0.39-0.11,0.83-0.01,1.26-0.01c-0.07,0.38-0.05,0.79-0.22,1.13c-0.27,0.56-0.63,1.08-0.99,1.58
		c-2.4,3.36-3.67,7.21-4.84,11.11c-0.09,0.28-0.11,0.59-0.16,0.88c0.06,0.04,0.12,0.09,0.18,0.13c0.4-0.3,0.83-0.57,1.19-0.91
		c3.14-3.02,6.11-6.18,8.55-9.8c1.05-1.55,2.16-3.06,3.28-4.56c0.45-0.61,1.03-1.04,1.85-0.97c0.59,0.05,0.83,0.36,0.53,0.89
		c-0.41,0.72-0.87,1.42-1.35,2.1c-1,1.43-2.03,2.83-3.05,4.25c-2.05,2.85-2.77,6.13-2.96,9.55c-0.08,1.31,0.43,1.64,1.63,1.07
		c1.91-0.92,3.7-2.03,4.64-4.08c0.41-0.88,1.13-1.41,2.06-1.66c0.21-0.06,0.57-0.08,0.64,0.03c0.12,0.18,0.13,0.51,0.05,0.71
		c-0.35,0.84-0.78,1.64-1.13,2.48c-0.24,0.58-0.38,1.2-0.57,1.8C41.96,69.69,42.03,69.74,42.1,69.78z M66.8,72.38
		c-1.94,1.62-3.77,3.26-4.84,5.57c-0.08,0.16-0.13,0.34-0.16,0.52c-0.25,1.2,0.51,2.15,1.74,2.07c0.47-0.03,0.99-0.19,1.39-0.43
		c1.38-0.85,2.33-2.06,2.72-3.65C67.99,75,67.7,73.68,66.8,72.38z M92.58,65.47c-2.12,0.73-3.74,1.8-4.78,3.64
		c-0.12,0.22-0.06,0.53-0.09,0.8c0.27,0.02,0.59,0.14,0.8,0.04C90.47,69.09,91.73,67.59,92.58,65.47z M111.77,67.71
		c0.06,0.1,0.13,0.2,0.19,0.3c0.95-0.43,1.92-0.82,2.83-1.31c0.39-0.21,0.72-0.59,0.99-0.96c0.13-0.19,0.15-0.57,0.04-0.77
		c-0.07-0.14-0.47-0.2-0.68-0.15C113.53,65.23,112.43,66.22,111.77,67.71z"/>
</g>
</svg>
