<?xml version="1.0" encoding="utf-8"?>
<!-- Generator: Adobe Illustrator 24.3.0, SVG Export Plug-In . SVG Version: 6.00 Build 0)  -->
<svg version="1.1" id="Layer_1" xmlns="http://www.w3.org/2000/svg" xmlns:xlink="http://www.w3.org/1999/xlink" x="0px" y="0px"
	 viewBox="0 0 140 140" style="enable-background:new 0 0 140 140;" xml:space="preserve">
<style type="text/css">
	.st0{fill:#009D9C;}
	.st1{fill:#2F469C;}
	.st2{fill:#FFFFFF;}
	.st3{fill-rule:evenodd;clip-rule:evenodd;fill:#FF6352;}
	.st4{fill-rule:evenodd;clip-rule:evenodd;fill:#2989D4;}
	.st5{fill-rule:evenodd;clip-rule:evenodd;fill:#5F378B;}
	.st6{fill:#001327;}
	.st7{fill:#BF0000;}
	.st8{fill:#AA1129;}
	.st9{fill:#444444;}
	.st10{fill:#AA1029;}
	.st11{fill:url(#SVGID_1_);}
	.st12{fill:#241C50;}
	.st13{fill:#251D51;}
	.st14{fill:#262C30;}
	.st15{fill:#44B02D;}
	.st16{fill:#0000FF;}
	.st17{fill-rule:evenodd;clip-rule:evenodd;fill:#2A0B57;}
	.st18{fill:#0050AA;}
	.st19{fill:#FFF000;}
	.st20{fill:#E60A14;}
	.st21{fill:#E3032E;}
	.st22{fill:#A8C20B;}
	.st23{fill:#00A082;}
	.st24{fill:#FFCC1B;}
	.st25{fill:#110340;}
	.st26{fill:#2989D4;}
	.st27{fill:url(#SVGID_2_);}
	.st28{fill:#5F378B;}
	.st29{fill:url(#SVGID_3_);}
	.st30{fill:url(#SVGID_4_);}
	.st31{fill:#1A1311;}
	.st32{fill:#00309B;}
	.st33{fill:#1946A9;}
	.st34{fill:#042C86;}
	.st35{fill:#0435A1;}
</style>
<g>
	<path class="st14" d="M36.45,68.6v-0.9c0-2.04-1.64-3.3-3.97-3.3s-3.67,1.18-3.67,2.8c0,0.77,0.35,2.13,2.83,2.89l4.26,1.36
		c4.26,1.36,8.33,3.26,8.33,8.86c0,5.43-4.46,9.27-11.35,9.27c-6.89,0-11.75-3.44-11.75-8.95v-1.09h7.09v1.31
		c0,2.17,1.69,3.3,4.46,3.3c2.97,0,4.51-1.31,4.51-3.12c0-1.27-0.6-2.53-2.73-3.21l-5.11-1.67c-4.96-1.63-7.54-4.21-7.54-8.5
		c0-4.61,3.92-8.68,10.66-8.68c6.59,0,11.06,3.44,11.06,8.95v0.68H36.45z"/>
	<path class="st14" d="M44.23,89.14l9.56-29.71h7.85l9.51,29.71h-7.49l-1.36-4.7h-9.61l-1.31,4.7H44.23z M54.24,78.87h6.49
		l-3.27-11.49L54.24,78.87z"/>
	<path class="st14" d="M82.44,73.8h10.67v5.7c0,6.2-4.46,10.09-11.11,10.09c-6.79,0-11.45-3.89-11.45-10.09V69.05
		c0-6.2,4.22-10.09,11.59-10.09c6.64,0,10.96,3.71,10.96,9.63v0.77h-6.79v-0.63c0-2.4-1.45-3.89-4.27-3.89
		c-2.76,0-4.46,1.67-4.46,4.34v10.18c0,2.67,1.65,4.34,4.37,4.34c2.96,0,4.61-1.67,4.61-4.34v-0.5h-4.12V73.8z"/>
	<path class="st14" d="M118.87,79.5c0,6.2-4.57,10.09-11.33,10.09S96.2,85.7,96.2,79.5V69.05c0-6.2,4.33-10.09,11.33-10.09
		c6.76,0,11.33,3.89,11.33,10.09V79.5z M103.11,79.37c0,2.67,1.67,4.34,4.43,4.34c2.76,0,4.43-1.67,4.43-4.34V69.19
		c0-2.67-1.67-4.34-4.43-4.34c-2.76,0-4.43,1.67-4.43,4.34V79.37z"/>
	<rect x="50.96" y="50.41" class="st15" width="12.65" height="4.55"/>
</g>
</svg>
