<?xml version="1.0" encoding="utf-8"?>
<!-- Generator: Adobe Illustrator 24.3.0, SVG Export Plug-In . SVG Version: 6.00 Build 0)  -->
<svg version="1.1" id="Layer_1" xmlns="http://www.w3.org/2000/svg" xmlns:xlink="http://www.w3.org/1999/xlink" x="0px" y="0px"
	 viewBox="0 0 140 140" style="enable-background:new 0 0 140 140;" xml:space="preserve">
<style type="text/css">
	.st0{fill:#009D9C;}
	.st1{fill:#2F469C;}
	.st2{fill:#FFFFFF;}
	.st3{fill-rule:evenodd;clip-rule:evenodd;fill:#FF6352;}
	.st4{fill-rule:evenodd;clip-rule:evenodd;fill:#2989D4;}
	.st5{fill-rule:evenodd;clip-rule:evenodd;fill:#5F378B;}
	.st6{fill:#001327;}
	.st7{fill:#BF0000;}
	.st8{fill:#AA1129;}
	.st9{fill:#444444;}
	.st10{fill:#AA1029;}
	.st11{fill:url(#SVGID_1_);}
	.st12{fill:#241C50;}
	.st13{fill:#251D51;}
	.st14{fill:#262C30;}
	.st15{fill:#44B02D;}
	.st16{fill:#0000FF;}
	.st17{fill-rule:evenodd;clip-rule:evenodd;fill:#2A0B57;}
	.st18{fill:#0050AA;}
	.st19{fill:#FFF000;}
	.st20{fill:#E60A14;}
	.st21{fill:#E3032E;}
	.st22{fill:#A8C20B;}
	.st23{fill:#00A082;}
	.st24{fill:#FFCC1B;}
	.st25{fill:#110340;}
	.st26{fill:#2989D4;}
	.st27{fill:url(#SVGID_2_);}
	.st28{fill:#5F378B;}
	.st29{fill:url(#SVGID_3_);}
	.st30{fill:url(#SVGID_4_);}
	.st31{fill:#1A1311;}
	.st32{fill:#00309B;}
	.st33{fill:#1946A9;}
	.st34{fill:#042C86;}
	.st35{fill:#0435A1;}
</style>
<g>
	<g>
		<path class="st8" d="M41.3,71.77V61.21h2.17v10.51c0,3.16,1.68,5.15,4.87,5.15s4.89-1.99,4.89-5.15V61.21h2.17v10.53
			c0,4.3-2.38,7.04-7.07,7.04C43.68,78.79,41.3,76.02,41.3,71.77z"/>
		<path class="st9" d="M58.41,76.03l1.29-1.62c1.11,1.27,2.98,2.43,5.41,2.43c3.08,0,4.06-1.62,4.06-2.93
			c0-4.35-10.22-1.92-10.22-7.94c0-2.78,2.54-4.7,5.95-4.7c2.61,0,4.66,0.89,6.11,2.38l-1.29,1.54c-1.29-1.42-3.11-2.02-5-2.02
			c-2.04,0-3.55,1.09-3.55,2.68c0,3.79,10.22,1.62,10.22,7.92c0,2.43-1.71,4.96-6.37,4.96C62.06,78.71,59.83,77.59,58.41,76.03z"/>
		<path class="st9" d="M73.91,69.96c0-5.2,3.91-8.75,8.88-8.75c3.05,0,5.18,1.42,6.55,3.35l-1.79,0.99
			c-0.98-1.45-2.79-2.46-4.76-2.46c-3.78,0-6.65,2.81-6.65,6.87c0,4.01,2.87,6.87,6.65,6.87c1.97,0,3.78-1.04,4.76-2.46l1.81,0.96
			c-1.45,1.95-3.52,3.37-6.57,3.37C77.82,78.71,73.91,75.16,73.91,69.96z"/>
		<path class="st9" d="M108.77,78.71v-17.5h2.15v15.55h8.02v1.94H108.77z"/>
		<g>
			<polygon class="st8" points="121.82,61.21 121.82,63.15 123.96,63.15 131.14,63.15 133.13,63.15 133.13,61.21 			"/>
			<polygon class="st9" points="123.96,70.73 132.95,70.73 132.95,68.79 131.14,68.79 123.96,68.79 121.82,68.79 121.82,78.71 
				133.13,78.71 133.13,76.77 123.96,76.77 			"/>
		</g>
		<polygon class="st9" points="99.87,61.21 97.21,61.21 90.24,78.71 92.7,78.71 98.52,63.44 104.35,78.71 106.81,78.71 		"/>
	</g>
	<g>
		<g>
			<rect x="13.42" y="74.87" class="st10" width="2.21" height="1.82"/>
			<rect x="16.51" y="73.58" class="st10" width="2.21" height="3.1"/>
			<rect x="19.61" y="68.66" class="st10" width="2.21" height="8.03"/>
			<rect x="22.7" y="64.81" class="st10" width="2.21" height="11.88"/>
			<rect x="25.8" y="63.31" class="st10" width="2.21" height="13.38"/>
		</g>
		<path class="st9" d="M20.71,83.84c-7.63,0-13.84-6.21-13.84-13.84s6.21-13.84,13.84-13.84S34.56,62.37,34.56,70
			S28.35,83.84,20.71,83.84z M20.71,56.72c-7.32,0-13.28,5.96-13.28,13.28c0,7.32,5.96,13.28,13.28,13.28S33.99,77.32,33.99,70
			S28.04,56.72,20.71,56.72z"/>
	</g>
</g>
</svg>
