<?xml version="1.0" encoding="utf-8"?>
<!-- Generator: Adobe Illustrator 24.3.0, SVG Export Plug-In . SVG Version: 6.00 Build 0)  -->
<svg version="1.1" id="Layer_1" xmlns="http://www.w3.org/2000/svg" xmlns:xlink="http://www.w3.org/1999/xlink" x="0px" y="0px"
	 viewBox="0 0 140 140" style="enable-background:new 0 0 140 140;" xml:space="preserve">
<style type="text/css">
	.st0{fill:#009D9C;}
	.st1{fill:#2F469C;}
	.st2{fill:#FFFFFF;}
	.st3{fill-rule:evenodd;clip-rule:evenodd;fill:#FF6352;}
	.st4{fill-rule:evenodd;clip-rule:evenodd;fill:#2989D4;}
	.st5{fill-rule:evenodd;clip-rule:evenodd;fill:#5F378B;}
	.st6{fill:#001327;}
	.st7{fill:#BF0000;}
	.st8{fill:#AA1129;}
	.st9{fill:#444444;}
	.st10{fill:#AA1029;}
	.st11{fill:url(#SVGID_1_);}
	.st12{fill:#241C50;}
	.st13{fill:#251D51;}
	.st14{fill:#262C30;}
	.st15{fill:#44B02D;}
	.st16{fill:#0000FF;}
	.st17{fill-rule:evenodd;clip-rule:evenodd;fill:#2A0B57;}
	.st18{fill:#0050AA;}
	.st19{fill:#FFF000;}
	.st20{fill:#E60A14;}
	.st21{fill:#E3032E;}
	.st22{fill:#A8C20B;}
	.st23{fill:#00A082;}
	.st24{fill:#FFCC1B;}
	.st25{fill:#110340;}
	.st26{fill:#2989D4;}
	.st27{fill:url(#SVGID_2_);}
	.st28{fill:#5F378B;}
	.st29{fill:url(#SVGID_3_);}
	.st30{fill:url(#SVGID_4_);}
	.st31{fill:#1A1311;}
	.st32{fill:#00309B;}
	.st33{fill:#1946A9;}
	.st34{fill:#042C86;}
	.st35{fill:#0435A1;}
</style>
<g>
	<path class="st3" d="M14.96,72.12L5.29,56.61h6.25l6.21,10.6l6.09-10.6h6.14l-9.71,15.55v11.24h-5.31L14.96,72.12z M59.09,83.39
		v-2.9c-0.7,1.04-1.61,1.85-2.75,2.45c-1.11,0.59-2.34,0.9-3.59,0.9c-1.29,0-2.44-0.29-3.46-0.86c-1.02-0.57-1.76-1.38-2.22-2.41
		c-0.46-1.04-0.68-2.47-0.68-4.29V63.99h5.06v8.92c0,2.73,0.09,4.4,0.28,5.02c0.19,0.61,0.53,1.1,1.02,1.46
		c0.49,0.36,1.12,0.54,1.87,0.54c0.86,0,1.64-0.24,2.32-0.72c0.69-0.48,1.15-1.08,1.41-1.79c0.25-0.71,0.38-2.46,0.38-5.23v-8.18
		h5.06v19.4H59.09z M79.14,73.54v-4.51h11.49V79.7c-1.12,1.1-2.74,2.06-4.85,2.9c-2.12,0.83-4.27,1.25-6.44,1.25
		c-2.76,0-5.17-0.59-7.22-1.76c-2.05-1.18-3.6-2.86-4.63-5.04c-1.03-2.19-1.55-4.57-1.55-7.14c0-2.79,0.58-5.27,1.73-7.44
		c1.15-2.17,2.84-3.83,5.06-4.99c1.69-0.89,3.8-1.33,6.32-1.33c3.28,0,5.84,0.7,7.68,2.09c2.77,2.09,3.03,3.32,3.56,5.78L85,65.03
		c-0.37-1.32-1.07-2.35-2.1-3.11c-1.03-0.76-2.31-1.14-3.85-1.14c-2.33,0-4.18,0.75-5.56,2.25c-1.37,1.5-2.06,3.72-2.06,6.67
		c0,3.18,0.7,5.56,2.09,7.15c1.39,1.59,3.22,2.38,5.48,2.38c1.12,0,2.24-0.22,3.36-0.67c1.12-0.44,2.09-0.98,2.89-1.62v-3.4H79.14z
		 M118.89,83.39l-7.71-19.4h5.31l3.6,9.9l1.05,3.31c0.28-0.84,0.45-1.39,0.52-1.66c0.17-0.55,0.35-1.1,0.54-1.64l3.64-9.9h5.21
		l-7.6,19.4H118.89z M132.15,57.76c0.44,0,0.88,0.12,1.26,0.34c0.41,0.22,0.73,0.54,0.96,0.96c0.22,0.4,0.34,0.85,0.34,1.3
		c0,0.45-0.11,0.88-0.34,1.29c-0.22,0.4-0.55,0.74-0.95,0.96c-0.39,0.22-0.83,0.34-1.28,0.34c-0.45,0-0.89-0.12-1.27-0.34
		c-0.4-0.22-0.73-0.56-0.95-0.96c-0.22-0.39-0.34-0.84-0.34-1.29c0-0.45,0.11-0.89,0.34-1.3c0.22-0.41,0.55-0.74,0.96-0.96
		C131.28,57.87,131.71,57.76,132.15,57.76 M132.15,58.19c-0.36,0-0.71,0.09-1.05,0.28c-0.34,0.19-0.61,0.46-0.8,0.8
		c-0.19,0.33-0.29,0.71-0.29,1.09c0,0.37,0.09,0.73,0.28,1.08c0.19,0.34,0.45,0.61,0.79,0.8c0.32,0.19,0.69,0.29,1.06,0.29
		c0.37,0,0.74-0.1,1.06-0.29c0.33-0.19,0.61-0.46,0.79-0.8c0.19-0.34,0.28-0.7,0.28-1.08c0-0.38-0.1-0.74-0.29-1.09
		c-0.18-0.34-0.46-0.62-0.8-0.8C132.88,58.29,132.52,58.19,132.15,58.19 M25.01,73.42c0-1.7,0.41-3.35,1.24-4.95
		c0.83-1.59,2-2.81,3.52-3.65c1.52-0.84,3.21-1.26,5.09-1.26c2.89,0,5.27,0.95,7.12,2.86c1.85,1.91,2.77,4.31,2.77,7.23
		c0,2.93-0.93,5.37-2.8,7.3c-1.87,1.93-4.22,2.9-7.05,2.9c-1.75,0-3.43-0.4-5.02-1.21c-1.59-0.8-2.8-1.98-3.63-3.54
		C25.42,77.53,25.01,75.64,25.01,73.42 M30.19,73.69c0,1.92,0.45,3.4,1.35,4.42c0.9,1.02,2.01,1.53,3.33,1.53
		c1.32,0,2.43-0.51,3.32-1.53c0.89-1.02,1.34-2.51,1.34-4.46c0-1.9-0.45-3.36-1.34-4.38c-0.89-1.02-2-1.53-3.32-1.53
		c-1.32,0-2.43,0.51-3.33,1.53C30.65,70.29,30.19,71.77,30.19,73.69 M92.13,73.42c0-1.7,0.41-3.35,1.24-4.95
		c0.83-1.59,2-2.81,3.52-3.65c1.52-0.84,3.22-1.26,5.09-1.26c2.89,0,5.27,0.95,7.12,2.86c1.85,1.91,2.77,4.31,2.77,7.23
		c0,2.93-0.93,5.37-2.8,7.3c-1.87,1.93-4.22,2.9-7.05,2.9c-1.75,0-3.43-0.4-5.02-1.21c-1.59-0.8-2.8-1.98-3.63-3.54
		S92.13,75.64,92.13,73.42 M97.32,73.69c0,1.92,0.45,3.4,1.35,4.42c0.9,1.02,2.01,1.53,3.33,1.53c1.32,0,2.43-0.51,3.32-1.53
		c0.89-1.02,1.34-2.51,1.34-4.46c0-1.9-0.45-3.36-1.34-4.38c-0.9-1.02-2-1.53-3.32-1.53c-1.32,0-2.43,0.51-3.33,1.53
		C97.77,70.29,97.32,71.77,97.32,73.69 M131.03,61.79V59h0.95c0.32,0,0.56,0.03,0.7,0.08c0.15,0.05,0.26,0.14,0.35,0.27
		c0.09,0.13,0.13,0.26,0.13,0.41c0,0.2-0.07,0.38-0.22,0.53c-0.14,0.15-0.33,0.24-0.57,0.25c0.1,0.04,0.18,0.09,0.23,0.15
		c0.11,0.11,0.25,0.3,0.41,0.56l0.34,0.55h-0.54l-0.24-0.44c-0.19-0.35-0.35-0.56-0.47-0.65c-0.08-0.06-0.2-0.1-0.36-0.1h-0.26v1.19
		H131.03z M131.47,60.22h0.54c0.26,0,0.43-0.04,0.53-0.12c0.09-0.08,0.14-0.19,0.14-0.31c0-0.08-0.02-0.16-0.07-0.22
		c-0.05-0.07-0.11-0.12-0.19-0.15c-0.08-0.03-0.23-0.05-0.45-0.05h-0.51V60.22z"/>
</g>
</svg>
