<?xml version="1.0" encoding="utf-8"?>
<!-- Generator: Adobe Illustrator 24.3.0, SVG Export Plug-In . SVG Version: 6.00 Build 0)  -->
<svg version="1.1" id="Layer_1" xmlns="http://www.w3.org/2000/svg" xmlns:xlink="http://www.w3.org/1999/xlink" x="0px" y="0px"
	 viewBox="0 0 140 140" style="enable-background:new 0 0 140 140;" xml:space="preserve">
<style type="text/css">
	.st0{fill:#009D9C;}
	.st1{fill:#2F469C;}
	.st2{fill:#FFFFFF;}
	.st3{fill-rule:evenodd;clip-rule:evenodd;fill:#FF6352;}
	.st4{fill-rule:evenodd;clip-rule:evenodd;fill:#2989D4;}
	.st5{fill-rule:evenodd;clip-rule:evenodd;fill:#5F378B;}
	.st6{fill:#001327;}
	.st7{fill:#BF0000;}
	.st8{fill:#AA1129;}
	.st9{fill:#444444;}
	.st10{fill:#AA1029;}
	.st11{fill:url(#SVGID_1_);}
	.st12{fill:#241C50;}
	.st13{fill:#251D51;}
	.st14{fill:#262C30;}
	.st15{fill:#44B02D;}
	.st16{fill:#0000FF;}
	.st17{fill-rule:evenodd;clip-rule:evenodd;fill:#2A0B57;}
	.st18{fill:#0050AA;}
	.st19{fill:#FFF000;}
	.st20{fill:#E60A14;}
	.st21{fill:#E3032E;}
	.st22{fill:#A8C20B;}
	.st23{fill:#00A082;}
	.st24{fill:#FFCC1B;}
	.st25{fill:#110340;}
	.st26{fill:#2989D4;}
	.st27{fill:url(#SVGID_2_);}
	.st28{fill:#5F378B;}
	.st29{fill:url(#SVGID_3_);}
	.st30{fill:url(#SVGID_4_);}
	.st31{fill:#1A1311;}
	.st32{fill:#00309B;}
	.st33{fill:#1946A9;}
	.st34{fill:#042C86;}
	.st35{fill:#0435A1;}
</style>
<g>
	<path class="st16" d="M37.52,62.72v17.34h-4.61V62.72c0-0.62,0.24-1.21,0.68-1.64c0.44-0.44,1.03-0.68,1.64-0.68
		c0.3,0,0.6,0.06,0.88,0.17c0.28,0.12,0.53,0.29,0.75,0.5c0.21,0.22,0.38,0.47,0.49,0.75C37.47,62.11,37.53,62.41,37.52,62.72
		L37.52,62.72z M35.22,53.02c-0.51,0.01-1.01,0.17-1.42,0.46c-0.42,0.29-0.74,0.7-0.93,1.17c-0.19,0.47-0.23,0.99-0.13,1.49
		c0.11,0.5,0.36,0.95,0.72,1.31c0.36,0.36,0.83,0.6,1.33,0.69c0.5,0.09,1.02,0.04,1.49-0.16c0.47-0.2,0.87-0.53,1.15-0.96
		c0.28-0.43,0.43-0.93,0.42-1.43c0-0.34-0.07-0.68-0.2-1c-0.13-0.32-0.33-0.6-0.57-0.84c-0.24-0.24-0.53-0.43-0.85-0.56
		c-0.32-0.13-0.66-0.19-1-0.18V53.02z M28.58,67.63V67H13.46v4.16h8.28L12.84,86v0.63h15.79v-4.16h-9L28.58,67.63z M50.89,66.55
		c-5.13,0-8.17,3.16-8.17,8.4v11.7h4.6V75.08c0-2.75,1.27-4.24,3.57-4.24s3.57,1.49,3.57,4.24v11.55h4.6v-11.7
		c0-5.21-3.08-8.4-8.17-8.4V66.55z M124.78,67c-4.19,0-6.5,2-6.5,6.65v13h4.61V73.52c0-1.71,0.67-2.38,2.34-2.38h1.93v-4.16
		L124.78,67z M80.35,67h-5.24l-6.27,7.78V57.95h-4.61v28.68h4.61v-8.69l6.31,8.69h5.54l-7.62-10.4L80.35,67z M109.02,67h4.08v19.63
		h-4.08v-2.38c-0.79,0.9-1.76,1.62-2.86,2.1c-1.1,0.48-2.29,0.7-3.49,0.65c-1.32,0.01-2.63-0.25-3.85-0.77
		c-1.22-0.51-2.32-1.27-3.24-2.22c-0.92-0.95-1.64-2.08-2.11-3.32c-0.47-1.24-0.68-2.56-0.63-3.88c0-6.05,4.42-10.21,9.77-10.21
		c1.2-0.05,2.39,0.18,3.49,0.65c1.1,0.48,2.08,1.19,2.86,2.1L109.02,67z M108.84,76.82c0-3.79-2.49-6-5.61-6
		c-0.78-0.02-1.56,0.13-2.28,0.43c-0.72,0.3-1.37,0.74-1.92,1.31c-0.54,0.56-0.96,1.23-1.23,1.97c-0.27,0.73-0.38,1.52-0.33,2.3
		c-0.04,0.78,0.08,1.55,0.35,2.28c0.27,0.73,0.69,1.39,1.23,1.95c0.54,0.56,1.19,1,1.91,1.29c0.72,0.3,1.49,0.44,2.27,0.42
		C106.34,82.77,108.84,80.58,108.84,76.82z M83.84,86.63h4.61V57.95h-4.61V86.63z"/>
</g>
</svg>
