<svg width="54" height="54" viewBox="0 0 54 54" fill="none" xmlns="http://www.w3.org/2000/svg">
<circle cx="27" cy="27" r="26.5" fill="white" stroke="#6B6B6B"/>
<path d="M28.7013 21.3036C28.5181 21.4906 28.4155 21.7419 28.4155 22.0036C28.4155 22.2654 28.5181 22.5167 28.7013 22.7036L30.3013 24.3036C30.4882 24.4869 30.7396 24.5895 31.0013 24.5895C31.2631 24.5895 31.5144 24.4869 31.7013 24.3036L35.4713 20.5336C35.9742 21.6448 36.1264 22.8829 35.9078 24.0828C35.6892 25.2827 35.11 26.3875 34.2476 27.2499C33.3852 28.1124 32.2804 28.6915 31.0805 28.9101C29.8806 29.1287 28.6425 28.9765 27.5313 28.4736L20.6213 35.3836C20.2235 35.7815 19.6839 36.005 19.1213 36.005C18.5587 36.005 18.0191 35.7815 17.6213 35.3836C17.2235 34.9858 17 34.4462 17 33.8836C17 33.321 17.2235 32.7815 17.6213 32.3836L24.5313 25.4736C24.0285 24.3625 23.8762 23.1244 24.0949 21.9245C24.3135 20.7246 24.8926 19.6198 25.755 18.7574C26.6175 17.8949 27.7223 17.3158 28.9222 17.0972C30.1221 16.8786 31.3601 17.0308 32.4713 17.5336L28.7113 21.2936L28.7013 21.3036Z" stroke="#3F53D8" stroke-width="2" stroke-linecap="round" stroke-linejoin="round"/>
</svg>
