<svg width="54" height="54" viewBox="0 0 54 54" fill="none" xmlns="http://www.w3.org/2000/svg">
<circle cx="27" cy="27" r="26.5" fill="white" stroke="#6B6B6B"/>
<path d="M27 37C32.5228 37 37 32.5228 37 27C37 21.4772 32.5228 17 27 17C21.4772 17 17 21.4772 17 27C17 32.5228 21.4772 37 27 37Z" stroke="#3F53D8" stroke-width="2" stroke-linecap="round" stroke-linejoin="round"/>
<path d="M17 27H37" stroke="#3F53D8" stroke-width="2" stroke-linecap="round" stroke-linejoin="round"/>
<path d="M27 17C29.5013 19.7384 30.9228 23.292 31 27C30.9228 30.708 29.5013 34.2616 27 37C24.4987 34.2616 23.0772 30.708 23 27C23.0772 23.292 24.4987 19.7384 27 17Z" stroke="#3F53D8" stroke-width="2" stroke-linecap="round" stroke-linejoin="round"/>
</svg>
