<?xml version="1.0" encoding="utf-8"?>
<!-- Generator: Adobe Illustrator 24.3.0, SVG Export Plug-In . SVG Version: 6.00 Build 0)  -->
<svg version="1.1" id="Layer_1" xmlns="http://www.w3.org/2000/svg" xmlns:xlink="http://www.w3.org/1999/xlink" x="0px" y="0px"
	 viewBox="0 0 140 140" style="enable-background:new 0 0 140 140;" xml:space="preserve">
<style type="text/css">
	.st0{fill:#009D9C;}
	.st1{fill:#2F469C;}
	.st2{fill:#FFFFFF;}
	.st3{fill-rule:evenodd;clip-rule:evenodd;fill:#FF6352;}
	.st4{fill-rule:evenodd;clip-rule:evenodd;fill:#2989D4;}
	.st5{fill-rule:evenodd;clip-rule:evenodd;fill:#5F378B;}
	.st6{fill:#001327;}
	.st7{fill:#BF0000;}
	.st8{fill:#AA1129;}
	.st9{fill:#444444;}
	.st10{fill:#AA1029;}
	.st11{fill:url(#SVGID_1_);}
	.st12{fill:#241C50;}
	.st13{fill:#251D51;}
	.st14{fill:#262C30;}
	.st15{fill:#44B02D;}
	.st16{fill:#0000FF;}
	.st17{fill-rule:evenodd;clip-rule:evenodd;fill:#2A0B57;}
	.st18{fill:#0050AA;}
	.st19{fill:#FFF000;}
	.st20{fill:#E60A14;}
	.st21{fill:#E3032E;}
	.st22{fill:#A8C20B;}
	.st23{fill:#00A082;}
	.st24{fill:#FFCC1B;}
	.st25{fill:#110340;}
	.st26{fill:#2989D4;}
	.st27{fill:url(#SVGID_2_);}
	.st28{fill:#5F378B;}
	.st29{fill:url(#SVGID_3_);}
	.st30{fill:url(#SVGID_4_);}
	.st31{fill:#1A1311;}
	.st32{fill:#00309B;}
	.st33{fill:#1946A9;}
	.st34{fill:#042C86;}
	.st35{fill:#0435A1;}
</style>
<g>
	<path class="st12" d="M30.75,49.37c2.1,0,4.19,0,6.35,0c0.09,4.92,0.18,9.85,0.28,14.92c1.37-0.68,1.37-0.68,2.76-1.38
		c4.1-1.27,8.13-0.56,11.88,1.4c3.21,2.07,5.19,4.94,6.15,8.59c0.74,3.93,0.17,7.88-2.01,11.29c-2.43,3.23-5,4.65-8.84,5.8
		c-5.47,0-10.94,0-16.58,0C30.75,76.58,30.75,63.18,30.75,49.37z M40.42,70.09c-0.25,0.16-0.49,0.32-0.74,0.48
		c-1.71,1.67-2.51,3.59-2.62,5.97c-0.01,1.07-0.01,2.14,0.01,3.22c0,0.38,0.01,0.75,0.01,1.13c0.01,0.91,0.02,1.83,0.03,2.74
		c1.21,0.03,2.43,0.05,3.64,0.06c0.41,0.01,0.82,0.01,1.24,0.02c3.3,0.08,5.69-0.26,8.18-2.59c1.36-1.5,1.88-3.22,1.86-5.23
		c-0.16-1.95-0.91-3.52-2.21-4.97C47.1,68.71,43.44,67.97,40.42,70.09z"/>
	<path class="st12" d="M81.86,65.12c2.64,2.15,4.16,5.23,4.7,8.56c0.28,4.61-0.3,8.47-3.32,12.16c-2.4,2.66-5.54,4.32-9.12,4.7
		c-0.21,0.02-0.42,0.05-0.63,0.07c-3.84,0.2-7.29-1.22-10.2-3.61c-2.69-2.47-4.25-5.73-4.45-9.36c-0.16-4.71,0.91-8.42,4.08-12.02
		C68.22,60.58,76.27,61,81.86,65.12z M65.29,76.17c0,2.31,0.39,4.04,1.99,5.77c1.59,1.44,3.6,2.28,5.75,2.24
		c2.27-0.22,4.06-1.18,5.61-2.85c1.34-1.68,1.57-3.01,1.57-5.16C75.28,76.17,70.36,76.17,65.29,76.17z"/>
	<path class="st12" d="M94.57,49.37c2.19,0,4.38,0,6.63,0c0,4.29,0,8.57,0,12.99c2.64,0,5.29,0,8.01,0
		c0.01,1.04,0.01,2.09,0.02,3.16c0,0.33,0.01,0.66,0.01,1c0,0.26,0,0.51,0,0.78c0,0.26,0,0.53,0,0.8c-0.03,0.61-0.03,0.61-0.31,0.89
		c-0.57,0.02-1.15,0.03-1.72,0.03c-0.35,0-0.7,0-1.05,0c-0.37,0-0.74,0-1.11-0.01c-0.37,0-0.74,0-1.11,0
		c-0.91,0-1.82-0.01-2.74-0.01c0.01,1.21,0.03,2.43,0.06,3.64c0.01,0.41,0.01,0.82,0.02,1.24c0.03,2.74,0.12,5.05,1.96,7.23
		c1.95,1.63,3.46,2.18,5.97,2.54c0,2.1,0,4.19,0,6.35c-3.94,0.17-7-0.78-10.06-3.32c-2.7-2.53-4.46-6.02-4.61-9.74
		c-0.01-0.73-0.01-1.45-0.01-2.18c0-0.28,0-0.55,0-0.83c0-0.9,0-1.81,0-2.71c0-0.63,0-1.26,0-1.89c0-1.65,0-3.3,0.01-4.96
		c0-1.69,0-3.37,0.01-5.06C94.56,55.99,94.57,52.68,94.57,49.37z"/>
	<path class="st13" d="M87.39,49.37c2.1,0,4.19,0,6.35,0c0,13.4,0,26.8,0,40.61c-2.1,0-4.19,0-6.35,0
		C87.39,76.58,87.39,63.18,87.39,49.37z"/>
</g>
</svg>
