<?xml version="1.0" encoding="utf-8"?>
<!-- Generator: Adobe Illustrator 24.3.0, SVG Export Plug-In . SVG Version: 6.00 Build 0)  -->
<svg version="1.1" id="Layer_1" xmlns="http://www.w3.org/2000/svg" xmlns:xlink="http://www.w3.org/1999/xlink" x="0px" y="0px"
	 viewBox="0 0 140 140" style="enable-background:new 0 0 140 140;" xml:space="preserve">
<style type="text/css">
	.st0{fill:#009D9C;}
	.st1{fill:#2F469C;}
	.st2{fill:#FFFFFF;}
	.st3{fill-rule:evenodd;clip-rule:evenodd;fill:#FF6352;}
	.st4{fill-rule:evenodd;clip-rule:evenodd;fill:#2989D4;}
	.st5{fill-rule:evenodd;clip-rule:evenodd;fill:#5F378B;}
	.st6{fill:#001327;}
	.st7{fill:#BF0000;}
	.st8{fill:#AA1129;}
	.st9{fill:#444444;}
	.st10{fill:#AA1029;}
	.st11{fill:url(#SVGID_1_);}
	.st12{fill:#241C50;}
	.st13{fill:#251D51;}
	.st14{fill:#262C30;}
	.st15{fill:#44B02D;}
	.st16{fill:#0000FF;}
	.st17{fill-rule:evenodd;clip-rule:evenodd;fill:#2A0B57;}
	.st18{fill:#0050AA;}
	.st19{fill:#FFF000;}
	.st20{fill:#E60A14;}
	.st21{fill:#E3032E;}
	.st22{fill:#A8C20B;}
	.st23{fill:#00A082;}
	.st24{fill:#FFCC1B;}
	.st25{fill:#110340;}
	.st26{fill:#2989D4;}
	.st27{fill:url(#SVGID_2_);}
	.st28{fill:#5F378B;}
	.st29{fill:url(#SVGID_3_);}
	.st30{fill:url(#SVGID_4_);}
	.st31{fill:#1A1311;}
	.st32{fill:#00309B;}
	.st33{fill:#1946A9;}
	.st34{fill:#042C86;}
	.st35{fill:#0435A1;}
</style>
<g>
	<g>
		<path class="st0" d="M6.44,128.02V11.98h124.34c5.59,38.7,3.4,75.41-12.43,116.03H6.44"/>
		<g>
			<path class="st1" d="M56.89,55.83l-0.52,0.45c1.16,0.41,2.41-0.38,2.67-1.07l0.06-0.74C58.17,54.68,57.26,55.13,56.89,55.83"/>
			<path class="st1" d="M63.16,59.44l-0.91-0.06c0,0.8,0.26,1.45,1.11,1.97l0.68,0.15C64.97,60.71,63.73,59.89,63.16,59.44"/>
			<path class="st1" d="M53.99,40.55l-0.68,0.48c1.39,0.5,2.52-0.24,3.02-1.24l0.22-0.91C55.46,39.13,54.61,39.13,53.99,40.55"/>
			<path class="st1" d="M54.06,45.13l-0.2-0.75c-1.1,0.25-1.92,0.65-2.37,1.49v0.59C52.88,46.96,53.62,45.72,54.06,45.13"/>
			<path class="st1" d="M50.64,51.88l0.46,0.27c1.52,0.49,1.62-0.73,1.99-1.22l0.58-0.51C52.27,50.14,51.02,51.18,50.64,51.88"/>
			<path class="st1" d="M59.6,30.35l-0.55,0.26c0.15,0.97,2.34,2.05,2.89,1.27l0.08-0.92C61.31,30.48,60.57,30.22,59.6,30.35"/>
			<path class="st1" d="M67.22,27.88l-0.84-0.26c-0.45,0.64-0.69,1.13-0.22,2.24l0.44,0.88C67.6,29.77,68.59,28.85,67.22,27.88"/>
			<path class="st1" d="M88.02,48.12c-1.83,0.41-4.58-0.84-4.22-1.08c0.93-0.63,3.05-1.72,5.1-0.99c0.35,0.12,0.49,0.47,0.53,0.91
				C89.52,48,88.68,48.03,88.02,48.12 M94.33,49.22c-0.95-1.27-2.75-3.01-1.26-4.69c0.78-0.6,1.01-1.05,1.11-1.87
				c0.32-2.86,0.17-4.1-0.23-5.68c0.07-0.14,0.36,0.04,0.47-0.47c0.3-1.38-0.47-1.65-0.47-1.65c0.58-0.51,0.53-2.43-0.4-2.41
				c0.51-0.84,0.07-2.19-0.84-1.9c0,0,0.46-0.24,0.4-0.85c-0.12-1.22-1.86-0.02-1.41-0.83c0.24-0.42-0.74-1.86-1.24-0.75
				c-0.29-0.2,0.21-0.9-0.32-1.11c-0.31,0.01-0.64,0.26-1.04,0.48c-0.11-0.46,0.37-0.71-0.22-1.36c-0.8-0.56-0.85,0.27-1.4,0.57
				c-1.02-0.23,1.39-0.83-0.77-1.75c-0.56,1.32-0.51,0.34-0.76,0.16c-0.15-0.11-0.48,0.24-1.09,0.86c0.32-0.88,1.05-1.96-0.02-1.65
				c-1.22,0.55-0.51-0.17-0.52-0.26c1.06-0.47-0.97-1.61-0.89-0.41c-0.03,0.81-1.78,1.51-1.29,0.53c0.33-1.24,1.84,0.65,0.54-1.55
				c-0.81,0.92-1.47,1.53-1.61,1.87c-0.63,2.53-0.28,0.22-0.94,0.19c0.88-0.58,2-1.63,1.67-2.3c-0.95-0.07-3.14,1.48-1.75,1.61
				c-0.1,0.49-0.91,1.08-1.37,0.22c0.77-0.2,2.09-2.78,0.45-2.01c-0.16,0.15-0.16,0.61-0.45,1.04c-0.39-0.35-0.08-0.89-0.21-1.12
				c-1.31-1.21-0.85,1.94-0.8,2.63c-1.71-1.06-0.1-0.77-0.55-2.52c-1.42,0.26-1.8,0.86-1.56,2.45c-0.19,0.38-0.55,1.26-0.79,0.18
				c0.77-1.01,0.69-2.45-0.65-2.49c2.16,19.78,2,39.78-1.08,59.39l-0.17,1.05c1.55-0.02,3.81-0.48,5.44-0.56
				c4.69,0.16,4.59,0.77,12.36,0.66c1.79-0.17,2.29-0.47,2.87-0.44c-0.57-2.4-4.49-1.04-6.48-1.73c-3.37-0.32-3.95-2.35-5.02-3.85
				c-0.48-0.83-1.19-1.88-1.17-3.27c-0.26-1.8,0.09-2.76,0.05-4.52c0.15-1.3,1.63-1.04,2.55-0.93c2.92,0.29,7.83-0.18,9.12-0.57
				c1.85-0.56,1.89-1.7,0.64-3.41c-0.27-0.84-0.22-1.37,0.15-2.12c0.51-0.57,1.17-0.95,0.68-1.66c0,0-4.24-0.89-1.32-1.38
				c2.99-0.5,2-1.72,2-1.72c0,0-0.49-1.23-0.95-2.15c-0.34-0.67,2.49-0.89,2.79-1.96C97.21,52.29,95.07,50.25,94.33,49.22z"/>
			<path class="st1" d="M72.84,82.82c-2.39,14.71-6.45,29.67-12.5,45.19H6.44V11.98h66.33c0.55,3.82,0.92,6.62,1.31,10.41
				c0,0-1.14,0.35-1.03,1.28c0.12,1.02,0.57,1.26,0.57,1.26l-0.49,0.24c0,0-0.55-0.8-0.55-0.77c0-0.78,0.33-1.96-1.46-1.52
				c-0.62,1.37,0.99,1.66,0.57,2.6c-1.9,0.11-0.57-1.43-2.08-0.57c0.1-0.44-0.22-1.61-0.69-1.54c-0.21,0.66-0.71,1.77,0.04,2.45
				c-0.24,0.16-0.94,0.05-1.1-0.19c-0.22-0.33,0.51-0.9-0.08-1.93c-1.75,0.76-0.13,2.45-1.58,3.09c-1.59-0.2,0.92-1.55-0.35-2.72
				c-1.43,0.33-1.98,1.82-1.4,2.69c-0.03,0.78-0.64,1.17-0.74,1.84c-0.72-0.11-1.02-0.37-1.1-0.64c-0.09-0.49,1.3-0.75,0.37-1.85
				c-1.52,0.24-0.51,2.69-1.72,1.37c-0.13-0.57-0.51-1.08-0.81-1.14c-0.58,0.41-0.85,1.06-0.48,1.63l0.61,0.8
				c-0.08-0.02,0.26,0.44,0.18,0.42c-1.01-0.8-2.35-1.36-3.2-0.46c0.11,0.84,0.84,0.9,1.99,1.15c-1.45,0.13-1.73,0.65-2.2,0.93
				c-0.17-0.96-1.3-1.11-2.35-1.26c-0.58,0.15-0.97-0.27-1.24-0.06c0.44,1.09,1.51,1.92,2.8,2.18c0.58-0.07,0.66-0.05,1.06-0.27
				c0.78,0.36,0.69,0.48,0.89,1.03c-1.13,0.51-2.04-0.15-3.18,0.14c0,0.04-0.3,0.04-0.31-0.04c0.02-0.02-0.13-0.27-0.11-0.29
				c-0.49-0.94-1.8-0.57-2.5-0.37c-0.1,0.75,0.66,1.35,1.28,1.61c0.84,0.3,1.11,0.06,1.12,0.05l0.35-0.31
				c0.37,1.33,0.84,1.4,1.56,1.95c-0.78,0.29-1.07,0.52-2.06,0.44c-1.11-1.71-4.44-2.46-4.31-1.66c0.48,1.77,2.93,2.2,2.93,2.2
				s-1.29,0.48-1.07,0.89c0.22,0.41,1.9,0.67,1.66,1.32c-1.75-0.78-2.1-0.46-0.9,1.07c-1.47,0.07-1.15-1.52-2.08-1.88
				c-0.68,0.49-0.27,1.54-0.27,1.54c-0.34-0.27-1.22-1.75-1.96-1.57c-0.24,0.18-0.24,0.99,0.35,1.52c-0.71,0.16-1.85,0.06-2.03,0.82
				c1.16,0.88,2.38,0.88,4.19,0.65c0,0,0.33-0.01,0.68-0.12c0.34-0.11,0.86,0.37,0.86,0.37c-0.89,0.2-0.51,0.49-2.27,0.84
				c-1.15,0.55-2.05,1.26-2.05,2.41c0.71,0.35,1.58,0.69,2.05,0.01c0.77-1.11,0.56-0.22,1.1-0.27l0.59,0.19
				c-0.48,1.18-3.17,1.17-2.64,2.02c0.51,0.82,1.33,1.68,1.33,1.68s-1.89-0.96-2.43-0.27c-0.5,0.64,0.62,1.66,2.61,2.11
				c-0.68,0.41-3.07-0.01-1.62,1.49c-1.72,0.73-1.16,1.24,0.23,0.87l0.66,0.07c-0.41,0.29-1.64,0.85-1.54,1.29
				c0.07,0.58,1.46-0.15,1.68,0.29c0.1,0.63-0.67,0.91-0.74,1.09c0.99,0.62,1.56-0.88,2.45,0c-0.34,0.65-1.77,0.52-1.46,1.48
				c0.54,0.41,1.43,0.23,1.97,0.62c0,0-0.72,1.39-0.35,1.58c0.79,0.38,1.52-0.85,1.79-0.93c-0.2,1.61,1.16,1.07,0.75,2.16
				c-0.02,0.58-0.05,1.39,0.55,1.7c1.24-0.39,1.36-1.37,1.33-2.83c-0.01-0.51,1.43,0.33,1.43,0.33c0.88,0.71-1.49,1.24-0.78,2.74
				c2,0.28,2-1.43,3.63-1.74c0.71,0.5-0.3,1.3-0.54,1.87c-1.02,0.57-2.26-0.12-3.23,1.86c1.39,0.57,2.05,0.1,2.52-0.15
				c0.44-0.32,0.39-0.47,0.73-0.6c0.03,0.54-0.1,1.53,0.42,1.75c0.46-0.04,0.49-0.2,0.88-0.46c0.4,0.42-0.64,1.44-0.02,1.88
				c0.58-0.11,0.77-0.62,0.77-0.62c0.35,0.47,0.75,0.47,1.12,0.35c0.2-0.49,0.25-1.64-0.4-2.04c0.31-0.36,1.06,0.32,1.39,0.07
				c0.61,0.75-0.77,2.19,0.26,2.8c0.99-0.09,0.94-1.08,1.93-1.49c-0.17,1.01,0.99,1.75-0.5,2.5c0,0.99,1.83,0.69,0.95,2.12
				c0.34,0.57,0.8,0.32,1.21,0.22l0.88-0.99c-0.24,0.8-0.32,2.06-0.09,3c-0.31,0.75,0.42,1.61-0.95,2.26
				c-0.37,1.87-0.38,3.76-2.55,4.96c-1.22,2.31-8.95,1.09-10.65,3.37c0.41,0.41,4.36,0.28,4.87,0.13c0.75-0.36,1.33,0.29,2.11,0.26
				c1.73,0,3.81-0.57,5.23,0c2.01-0.02,3.71,0.05,5.53,0.06L72.84,82.82"/>
		</g>
		<path class="st2" d="M86.69,109.24c6.43,0,10.71-4.74,10.71-10.56c0-6.14-4.33-10.33-10.71-10.33c-6.43,0-10.8,4.08-10.8,10.33
			C75.9,104.81,80.35,109.24,86.69,109.24 M81.36,98.68c0-3.67,1.74-6.1,5.33-6.1c3.52,0,5.25,2.24,5.25,6.1
			c0,3.59-1.7,6.33-5.25,6.33C83.3,105.01,81.36,102.3,81.36,98.68z"/>
		<path class="st2" d="M112.92,92.65c-1.21-0.19-2.39-0.46-3.6-0.46c-2.13,0-3.62,0.5-3.62,1.55c0,1.2,2.01,2.16,4.26,3.36
			c2.14,1.16,5.1,2.7,5.1,6.18c0,3.82-3.4,5.97-8.56,5.97c-2.34,0-3.96-0.46-5.9-0.88v-4.23c1.5,0.46,3.92,1.27,6.1,1.27
			c1.45,0,2.9-0.66,2.9-1.97c0-1.2-1.73-1.93-4.22-3.32c-2.26-1.12-5.14-3.44-5.14-6.37c0-3.47,3.48-5.39,8.16-5.39
			c1.53,0,3.03,0.15,4.52,0.33V92.65"/>
		<path class="st2" d="M22.8,108.57c0.12-2.24,0.2-3.97,0.2-7.1V90.75c0-3.86-0.24-6.79-0.81-9.65h7.09c0,1.97-0.2,4.71-0.2,7.79
			v10.03c0,2.82,0.45,7.02,0.81,9.65H22.8"/>
		<path class="st2" d="M40.9,116.99c-0.41-2.97-0.41-6.28-0.41-7.36v-2.31c1.46,0.85,3,1.93,6.28,1.93c5.55,0,9.31-4.24,9.31-10.06
			c0-6.33-3.88-10.83-9.56-10.83c-3.93,0-5.55,1.89-6.85,3.31c-0.28-1.04-0.41-1.92-0.73-2.81l-5.14,0.39
			c0.65,3.39,1.21,6.54,1.21,10v8.08c0,2.85-0.61,8.21-0.81,10.06L40.9,116.99 M40.09,99.23c0-3.95,1.66-6.66,5.11-6.66
			c3.2,0,5.43,2.74,5.43,6.64c0,3.47-1.74,5.79-5.19,5.79C42.03,105.01,40.09,103.04,40.09,99.23z"/>
		<path class="st2" d="M71.01,92.59c-1.21-0.19-1.95-0.4-3.16-0.4c-2.13,0-3.62,0.5-3.62,1.55c0,1.2,2.01,2.16,4.27,3.36
			c2.14,1.16,5.1,2.7,5.1,6.18c0,3.82-3.4,5.97-8.56,5.97c-2.34,0-3.96-0.46-5.9-0.88v-4.23c1.5,0.46,3.92,1.27,6.1,1.27
			c1.45,0,2.9-0.66,2.9-1.97c0-1.2-1.73-1.93-4.22-3.32c-2.26-1.12-5.14-3.44-5.14-6.37c0-3.47,3.48-5.39,8.16-5.39
			c1.53,0,3.37,0.22,4.87,0.4L71.01,92.59"/>
	</g>
</g>
</svg>
