<?xml version="1.0" encoding="utf-8"?>
<!-- Generator: Adobe Illustrator 24.3.0, SVG Export Plug-In . SVG Version: 6.00 Build 0)  -->
<svg version="1.1" id="Layer_1" xmlns="http://www.w3.org/2000/svg" xmlns:xlink="http://www.w3.org/1999/xlink" x="0px" y="0px"
	 viewBox="0 0 140 140" style="enable-background:new 0 0 140 140;" xml:space="preserve">
<style type="text/css">
	.st0{fill:#009D9C;}
	.st1{fill:#2F469C;}
	.st2{fill:#FFFFFF;}
	.st3{fill-rule:evenodd;clip-rule:evenodd;fill:#FF6352;}
	.st4{fill-rule:evenodd;clip-rule:evenodd;fill:#2989D4;}
	.st5{fill-rule:evenodd;clip-rule:evenodd;fill:#5F378B;}
	.st6{fill:#001327;}
	.st7{fill:#BF0000;}
	.st8{fill:#AA1129;}
	.st9{fill:#444444;}
	.st10{fill:#AA1029;}
	.st11{fill:url(#SVGID_1_);}
	.st12{fill:#241C50;}
	.st13{fill:#251D51;}
	.st14{fill:#262C30;}
	.st15{fill:#44B02D;}
	.st16{fill:#0000FF;}
	.st17{fill-rule:evenodd;clip-rule:evenodd;fill:#2A0B57;}
	.st18{fill:#0050AA;}
	.st19{fill:#FFF000;}
	.st20{fill:#E60A14;}
	.st21{fill:#E3032E;}
	.st22{fill:#A8C20B;}
	.st23{fill:#00A082;}
	.st24{fill:#FFCC1B;}
	.st25{fill:#110340;}
	.st26{fill:#2989D4;}
	.st27{fill:url(#SVGID_2_);}
	.st28{fill:#5F378B;}
	.st29{fill:url(#SVGID_3_);}
	.st30{fill:url(#SVGID_4_);}
	.st31{fill:#1A1311;}
	.st32{fill:#00309B;}
	.st33{fill:#1946A9;}
	.st34{fill:#042C86;}
	.st35{fill:#0435A1;}
</style>
<g>
	
		<linearGradient id="SVGID_1_" gradientUnits="userSpaceOnUse" x1="9.9172" y1="261.8724" x2="9.9172" y2="284.7842" gradientTransform="matrix(1 0 0 -1 0 343.3683)">
		<stop  offset="0" style="stop-color:#B28300"/>
		<stop  offset="0.4079" style="stop-color:#DEC03D"/>
		<stop  offset="0.696" style="stop-color:#FAE663"/>
		<stop  offset="1" style="stop-color:#E9BD40"/>
	</linearGradient>
	<rect x="8.1" y="57.95" class="st11" width="3.64" height="24.06"/>
	<g id="Group-15_2_">
		<path id="Fill-1_2_" d="M35.7,57.95l-8.8,24.06h4.62l2.09-5.67h8.64l2.09,5.67h4.62l-8.83-24.06H35.7L35.7,57.95z M37.95,64.51
			l2.79,7.69h-5.6L37.95,64.51L37.95,64.51z"/>
		<path id="Fill-2_2_" d="M98.06,57.95l-8.8,24.06h4.62l2.09-5.67h8.64l2.06,5.67h4.62l-8.8-24.06H98.06L98.06,57.95z M100.28,64.51
			l2.79,7.69h-5.6L100.28,64.51L100.28,64.51z"/>
		<path id="Fill-3_2_" d="M67.01,57.95v15.29L54.69,57.95h-3.55v24.06h4.62v-15.7l12.66,15.7h3.23V57.95H67.01z"/>
		<path id="Fill-4_2_" d="M74.42,57.95v4.12h6.33v19.94h4.62V62.07h6.36v-4.12H74.42L74.42,57.95z"/>
		<path id="Fill-5_2_" d="M118.16,62.07h4.18c1.58,0,2.37,0.38,2.91,0.95c0.51,0.54,0.79,1.27,0.79,2.06c0,0.79-0.28,1.49-0.79,2.03
			c-0.54,0.57-1.33,0.95-2.91,0.95h-4.18C118.16,68.08,118.16,62.07,118.16,62.07z M133.99,82.01l-7.5-10.41
			c0.95-0.35,1.68-0.85,2.31-1.52c1.2-1.23,1.9-3.1,1.9-4.97c0-1.87-0.7-3.74-1.9-4.97c-1.33-1.42-3.17-2.15-6.27-2.15h-9.05v24.06
			h4.65v-9.81h3.8l7.03,9.78H133.99L133.99,82.01z"/>
		<path id="Fill-8_2_" d="M25.79,57.95h-5.03l-8.61,12.03l8.61,12.03h5.03l-8.61-12.03L25.79,57.95z"/>
		<path id="Fill-13_2_" d="M6.01,82.01h3.45V57.95H6.01V82.01z"/>
	</g>
</g>
</svg>
