<?xml version="1.0" encoding="utf-8"?>
<!-- Generator: Adobe Illustrator 24.3.0, SVG Export Plug-In . SVG Version: 6.00 Build 0)  -->
<svg version="1.1" id="Layer_1" xmlns="http://www.w3.org/2000/svg" xmlns:xlink="http://www.w3.org/1999/xlink" x="0px" y="0px"
	 viewBox="0 0 140 140" style="enable-background:new 0 0 140 140;" xml:space="preserve">
<style type="text/css">
	.st0{fill:#009D9C;}
	.st1{fill:#2F469C;}
	.st2{fill:#FFFFFF;}
	.st3{fill-rule:evenodd;clip-rule:evenodd;fill:#FF6352;}
	.st4{fill-rule:evenodd;clip-rule:evenodd;fill:#2989D4;}
	.st5{fill-rule:evenodd;clip-rule:evenodd;fill:#5F378B;}
	.st6{fill:#001327;}
	.st7{fill:#BF0000;}
	.st8{fill:#AA1129;}
	.st9{fill:#444444;}
	.st10{fill:#AA1029;}
	.st11{fill:url(#SVGID_1_);}
	.st12{fill:#241C50;}
	.st13{fill:#251D51;}
	.st14{fill:#262C30;}
	.st15{fill:#44B02D;}
	.st16{fill:#0000FF;}
	.st17{fill-rule:evenodd;clip-rule:evenodd;fill:#2A0B57;}
	.st18{fill:#0050AA;}
	.st19{fill:#FFF000;}
	.st20{fill:#E60A14;}
	.st21{fill:#E3032E;}
	.st22{fill:#A8C20B;}
	.st23{fill:#00A082;}
	.st24{fill:#FFCC1B;}
	.st25{fill:#110340;}
	.st26{fill:#2989D4;}
	.st27{fill:url(#SVGID_2_);}
	.st28{fill:#5F378B;}
	.st29{fill:url(#SVGID_3_);}
	.st30{fill:url(#SVGID_4_);}
	.st31{fill:#1A1311;}
	.st32{fill:#00309B;}
	.st33{fill:#1946A9;}
	.st34{fill:#042C86;}
	.st35{fill:#0435A1;}
</style>
<g id="グループ_3972" transform="translate(-511.025 -85.501)">
	<g id="グループ_3969">
		<g id="グループ_3968">
			<path id="パス_3312" class="st31" d="M544.28,173.09c-9.71,0-17.59-7.87-17.59-17.59c0-9.71,7.87-17.59,17.59-17.59
				c9.71,0,17.59,7.87,17.59,17.59c0,0,0,0,0,0C561.86,165.21,553.99,173.08,544.28,173.09z M544.28,140.67
				c-8.19,0-14.83,6.64-14.83,14.83c0,8.19,6.64,14.83,14.83,14.83c8.19,0,14.83-6.64,14.83-14.83c0,0,0,0,0,0
				C559.1,147.32,552.47,140.68,544.28,140.67z"/>
			<path id="パス_3313" class="st31" d="M550.09,155.16l-1.55,2.14c-0.17,0.39-0.62,0.58-1.02,0.41
				c-0.18-0.08-0.33-0.23-0.41-0.41l-0.15-0.21l-6.23-8.59l-5.67,7.81h3.38l1.57-2.16c0.17-0.39,0.62-0.58,1.02-0.41
				c0.18,0.08,0.33,0.22,0.41,0.41l0.15,0.21l6.23,8.59l5.65-7.79H550.09z"/>
		</g>
	</g>
	<g id="グループ_3971">
		<g id="グループ_3970">
			<path id="パス_3314" class="st31" d="M599.79,167.53l1.91-2.07h-1.49l-2.05,2.28c-0.09,0.11-0.17,0.08-0.17-0.07v-2.21h-1.23
				v5.67H598v-1.45c0.01-0.16,0.07-0.32,0.17-0.44l0.46-0.5c0.06-0.08,0.18-0.09,0.26-0.03c0.02,0.02,0.04,0.04,0.05,0.06l1.48,2.36
				h1.43l-2.09-3.21C599.68,167.8,599.7,167.64,599.79,167.53z"/>
			<path id="パス_3315" class="st31" d="M584.13,140.7v10.08c0,0.44-0.21,0.51-0.46,0.15l-7.33-10.23h-3.43v17.76h3.84v-10.1
				c0-0.44,0.21-0.51,0.47-0.15l7.33,10.25h3.43V140.7H584.13z"/>
			<path id="パス_3316" class="st31" d="M598.76,140.7v17.76h11.63v-3.1h-6.99c-0.44,0-0.8-0.36-0.8-0.8v-2.71
				c0-0.44,0.36-0.8,0.8-0.8h6.97v-3.09h-6.97c-0.44,0-0.8-0.36-0.8-0.8v-2.56c0-0.44,0.36-0.8,0.8-0.8h6.99v-3.09H598.76z"/>
			<path id="パス_3317" class="st31" d="M604.57,165.46v5.67h3.71v-0.99h-2.23c-0.14,0-0.26-0.11-0.26-0.26v-0.87
				c0-0.14,0.12-0.26,0.26-0.26h2.22v-0.99h-2.22c-0.14,0-0.26-0.11-0.26-0.26v-0.82c0-0.14,0.11-0.26,0.26-0.26h2.23v-0.98H604.57z
				"/>
			<path id="パス_3318" class="st31" d="M627.8,140.19c-2.04-0.07-4.03,0.66-5.55,2.02c-2.07,1.87-2.01,4.18-2.01,7.37
				c0,3.19-0.06,5.5,2.01,7.37c3.19,2.7,7.87,2.7,11.07,0c2.07-1.87,2.04-4.17,2.04-7.37c0-3.19,0.03-5.5-2.04-7.37
				C631.8,140.85,629.83,140.13,627.8,140.19z M630.35,154.77c-0.68,0.66-1.61,1.02-2.56,0.98c-0.96,0.03-1.89-0.32-2.59-0.98
				c-0.77-0.78-0.97-1.64-0.97-5.19c0-3.55,0.2-4.41,0.97-5.19c0.7-0.66,1.63-1.02,2.59-0.99c0.95-0.03,1.87,0.32,2.56,0.99
				c0.77,0.78,1.01,1.63,1.01,5.19C631.36,153.14,631.13,153.99,630.35,154.77L630.35,154.77z"/>
			<path id="パス_3319" class="st31" d="M577.39,165.46l-1.51,2.84c-0.07,0.12-0.17,0.12-0.24,0l-1.52-2.84h-1.21v5.67h1.23v-3.05
				c0-0.14,0.06-0.16,0.13-0.03l1.08,1.93h0.83l1.08-1.93c0.07-0.12,0.13-0.11,0.13,0.03v3.05h1.23v-5.67H577.39z"/>
			<path id="パス_3320" class="st31" d="M584.14,165.46h-0.71l-2.29,5.67h1.28l0.29-0.77c0.06-0.14,0.2-0.23,0.35-0.24h1.72
				c0.15,0.01,0.28,0.1,0.34,0.24l0.28,0.76h1.28l-2.3-5.67L584.14,165.46z M583.4,169.2c-0.09,0.01-0.17-0.05-0.18-0.14
				c0-0.03,0-0.07,0.02-0.1l0.56-1.45l0.05-0.14c0.05-0.13,0.13-0.13,0.18,0l0.12,0.31l0.48,1.27c0.04,0.08,0.01,0.18-0.08,0.22
				c-0.03,0.01-0.06,0.02-0.09,0.02L583.4,169.2z"/>
			<path id="パス_3321" class="st31" d="M610.8,165.46v0.99h1.39c0.14,0,0.26,0.11,0.26,0.26v4.43h1.23v-4.43
				c0-0.14,0.11-0.26,0.26-0.26h1.39v-0.98H610.8z"/>
			<rect id="長方形_1243" x="618.07" y="165.46" class="st31" width="1.23" height="5.67"/>
			<path id="パス_3322" class="st31" d="M626.12,165.46v3.22c0,0.14-0.07,0.16-0.15,0.05l-2.34-3.27h-1.1v5.67h1.23v-3.22
				c0-0.14,0.07-0.16,0.15-0.05l2.34,3.27h1.09v-5.67H626.12z"/>
		</g>
		<path id="パス_3323" class="st31" d="M592.59,168.69c0.68-0.18,1.15-0.79,1.15-1.49c-0.01-0.81-0.59-1.5-1.38-1.66
			c-0.22-0.05-0.44-0.08-0.67-0.08h-2.46v5.67h1.23v-2.03c0.01-0.13,0.12-0.23,0.25-0.24h0.39c0.15,0.01,0.29,0.09,0.37,0.22
			l1.11,2.04H594L592.59,168.69z M591.62,167.95h-0.26h-0.01h-0.64c-0.13,0-0.24-0.1-0.25-0.24v-1.02c0.01-0.13,0.11-0.23,0.24-0.24
			h0.92c0.12,0,0.24,0.02,0.36,0.05c0.31,0.09,0.53,0.37,0.52,0.69c0,0.06-0.01,0.12-0.02,0.18
			C592.37,167.75,592.01,167.99,591.62,167.95L591.62,167.95z"/>
		<path id="パス_3324" class="st31" d="M635.01,167.96L635.01,167.96h-2.47v0.96h0.95c0.13,0,0.24,0.09,0.25,0.22
			c0.01,0.29-0.09,0.58-0.29,0.79c-0.25,0.23-0.57,0.34-0.91,0.33c-0.3,0.01-0.6-0.1-0.82-0.31c-0.25-0.25-0.31-0.53-0.31-1.66
			s0.06-1.41,0.31-1.66c0.22-0.21,0.51-0.33,0.82-0.32c0.55-0.06,1.06,0.31,1.18,0.86v0h1.29c-0.18-1-0.95-1.89-2.47-1.89
			c-0.65-0.02-1.28,0.21-1.77,0.64c-0.66,0.6-0.64,1.34-0.64,2.35s-0.02,1.76,0.64,2.35c1.05,0.87,2.58,0.86,3.62-0.03
			c0.46-0.43,0.63-0.94,0.63-1.8L635.01,167.96L635.01,167.96z"/>
	</g>
</g>
</svg>
