<?xml version="1.0" encoding="utf-8"?>
<!-- Generator: Adobe Illustrator 24.3.0, SVG Export Plug-In . SVG Version: 6.00 Build 0)  -->
<svg version="1.1" id="Layer_1" xmlns="http://www.w3.org/2000/svg" xmlns:xlink="http://www.w3.org/1999/xlink" x="0px" y="0px"
	 viewBox="0 0 140 140" style="enable-background:new 0 0 140 140;" xml:space="preserve">
<style type="text/css">
	.st0{fill:#009D9C;}
	.st1{fill:#2F469C;}
	.st2{fill:#FFFFFF;}
	.st3{fill-rule:evenodd;clip-rule:evenodd;fill:#FF6352;}
	.st4{fill-rule:evenodd;clip-rule:evenodd;fill:#2989D4;}
	.st5{fill-rule:evenodd;clip-rule:evenodd;fill:#5F378B;}
	.st6{fill:#001327;}
	.st7{fill:#BF0000;}
	.st8{fill:#AA1129;}
	.st9{fill:#444444;}
	.st10{fill:#AA1029;}
	.st11{fill:url(#SVGID_1_);}
	.st12{fill:#241C50;}
	.st13{fill:#251D51;}
	.st14{fill:#262C30;}
	.st15{fill:#44B02D;}
	.st16{fill:#0000FF;}
	.st17{fill-rule:evenodd;clip-rule:evenodd;fill:#2A0B57;}
	.st18{fill:#0050AA;}
	.st19{fill:#FFF000;}
	.st20{fill:#E60A14;}
	.st21{fill:#E3032E;}
	.st22{fill:#A8C20B;}
	.st23{fill:#00A082;}
	.st24{fill:#FFCC1B;}
	.st25{fill:#110340;}
	.st26{fill:#2989D4;}
	.st27{fill:url(#SVGID_2_);}
	.st28{fill:#5F378B;}
	.st29{fill:url(#SVGID_3_);}
	.st30{fill:url(#SVGID_4_);}
	.st31{fill:#1A1311;}
	.st32{fill:#00309B;}
	.st33{fill:#1946A9;}
	.st34{fill:#042C86;}
	.st35{fill:#0435A1;}
</style>
<g>
	<path class="st7" d="M108.23,82.71H32.3l6.06,6.09L108.23,82.71z"/>
	<path class="st7" d="M39.34,58.05v0.91c-1.44-0.91-2.65-1.45-4.39-1.45c-5.3,0-9.39,4.87-9.39,10.88c0,6.01,4.01,10.88,9.39,10.88
		c1.74,0,3.03-0.53,4.39-1.45v0.91h4.69v-20.7H39.34z M34.87,74.34c-2.65,0-4.54-2.59-4.54-5.86c0-3.27,1.89-5.86,4.54-5.86
		s4.47,2.59,4.47,5.86C39.41,71.75,37.52,74.34,34.87,74.34z"/>
	<path class="st7" d="M76.81,58.05v12.17c0,2.28-1.59,4.18-3.86,4.18c-2.27,0-3.86-1.9-3.86-4.18V58.05H64.4v12.17
		c0,5.02,3.41,9.05,8.4,9.05c2.27,0,4.01-1.29,4.01-1.29v0.76h4.69v-20.7H76.81z"/>
	<path class="st7" d="M120.42,78.83V66.65c0-2.28,1.59-4.18,3.86-4.18c2.27,0,3.86,1.9,3.86,4.18v12.17h4.69V66.65
		c0-5.02-3.41-9.05-8.4-9.05c-2.27,0-4.01,1.29-4.01,1.29v-0.84h-4.69v20.7h4.69V78.83z"/>
	<path class="st7" d="M12.08,78.83v-8.07h3.41l5.98,7.99h6.13l-7.27-9.66c2.27-1.6,3.71-4.26,3.71-7.3c0-4.95-4.01-8.9-8.86-8.9
		H7.16v25.87h4.92V78.83z M12.08,57.83h3.18c2.2,0,4.01,1.83,4.01,4.03c0,2.21-1.82,4.03-4.01,4.03h-3.18V57.83z"/>
	<path class="st7" d="M94.08,73.88c-0.45,0.3-0.98,0.53-1.59,0.53c-0.76,0-2.2-0.61-2.2-2.51V63h4.01v-4.95h-4.01v-5.17H85.6v5.17
		h-2.5V63h2.5v8.9c0,4.64,3.48,7.38,6.97,7.38c1.29,0,3.1-0.46,4.54-1.29L94.08,73.88z"/>
	<path class="st7" d="M55.62,67.79l8.03-9.74h-6.51l-5.68,7.23V51.21h-4.77v27.62h4.77V70.3l6.97,8.52h6.51L55.62,67.79z"/>
	<path class="st7" d="M104.9,57.52c-5.45,0-9.31,4.79-9.31,10.88c0,6.39,4.85,10.88,9.77,10.88c2.5,0,5.6-0.84,8.25-4.64l-4.16-2.43
		c-3.18,4.72-8.56,2.36-9.16-2.43h13.48C114.97,62.47,110.2,57.52,104.9,57.52z M108.99,65.74h-8.4
		C101.57,60.95,108.08,60.64,108.99,65.74z"/>
</g>
</svg>
