<?xml version="1.0" encoding="utf-8"?>
<!-- Generator: Adobe Illustrator 24.3.0, SVG Export Plug-In . SVG Version: 6.00 Build 0)  -->
<svg version="1.1" id="Layer_1" xmlns="http://www.w3.org/2000/svg" xmlns:xlink="http://www.w3.org/1999/xlink" x="0px" y="0px"
	 viewBox="0 0 140 140" style="enable-background:new 0 0 140 140;" xml:space="preserve">
<style type="text/css">
	.st0{fill:#009D9C;}
	.st1{fill:#2F469C;}
	.st2{fill:#FFFFFF;}
	.st3{fill-rule:evenodd;clip-rule:evenodd;fill:#FF6352;}
	.st4{fill-rule:evenodd;clip-rule:evenodd;fill:#2989D4;}
	.st5{fill-rule:evenodd;clip-rule:evenodd;fill:#5F378B;}
	.st6{fill:#001327;}
	.st7{fill:#BF0000;}
	.st8{fill:#AA1129;}
	.st9{fill:#444444;}
	.st10{fill:#AA1029;}
	.st11{fill:url(#SVGID_1_);}
	.st12{fill:#241C50;}
	.st13{fill:#251D51;}
	.st14{fill:#262C30;}
	.st15{fill:#44B02D;}
	.st16{fill:#0000FF;}
	.st17{fill-rule:evenodd;clip-rule:evenodd;fill:#2A0B57;}
	.st18{fill:#0050AA;}
	.st19{fill:#FFF000;}
	.st20{fill:#E60A14;}
	.st21{fill:#E3032E;}
	.st22{fill:#A8C20B;}
	.st23{fill:#00A082;}
	.st24{fill:#FFCC1B;}
	.st25{fill:#110340;}
	.st26{fill:#2989D4;}
	.st27{fill:url(#SVGID_2_);}
	.st28{fill:#5F378B;}
	.st29{fill:url(#SVGID_3_);}
	.st30{fill:url(#SVGID_4_);}
	.st31{fill:#1A1311;}
	.st32{fill:#00309B;}
	.st33{fill:#1946A9;}
	.st34{fill:#042C86;}
	.st35{fill:#0435A1;}
</style>
<g>
	<path id="path4499" class="st6" d="M56.74,57.09v3.79h4.17v-3.79H56.74z M20.19,57.13v5.39h-2.31v3.42h2.31v12.46
		c0,3.07,1.75,4.5,4.87,4.5c0.7,0.03,1.4-0.05,2.08-0.22v-3.57h-1.38c-0.97,0-1.41-0.61-1.41-1.64V65.95h2.79v-3.42h-2.8v-5.39
		C24.34,57.13,20.19,57.13,20.19,57.13z M47.04,57.13v5.39h-2.31v3.42h2.31v12.46c0,3.07,1.75,4.5,4.87,4.5
		c0.7,0.03,1.4-0.05,2.08-0.22v-3.57h-1.37c-0.97,0-1.41-0.61-1.41-1.64V65.95h2.79v-3.42H51.2v-5.39
		C51.2,57.13,47.04,57.13,47.04,57.13z M80.09,57.13v5.39h-2.31v3.42h2.31v12.46c0,3.07,1.75,4.5,4.87,4.5
		c0.7,0.03,1.4-0.05,2.08-0.22v-3.57h-1.38c-0.96,0-1.41-0.61-1.41-1.64V65.95h2.79v-3.42h-2.79v-5.39
		C84.26,57.13,80.09,57.13,80.09,57.13z M10.1,62.14c-3.15,0.02-5.61,2.21-5.61,5.4c0,5.47,7.81,6.76,7.81,10.22
		c0.02,0.49-0.17,0.96-0.52,1.29c-0.35,0.34-0.83,0.5-1.32,0.46c-1.89,0-2.49-1.49-2.75-3.17l-3.66,0.98
		c0.61,3.49,2.72,5.58,6.36,5.58c3.39,0,5.84-1.84,5.84-5.39c0-5.95-7.81-7.21-7.81-10.34c0-1.04,0.74-1.6,1.84-1.6
		c1.34,0,2.08,0.9,2.38,2.5l3.53-0.61C15.58,64.33,13.37,62.14,10.1,62.14z M70.01,62.14c-3.13,0-5.58,2.2-5.58,5.36
		c0,5.47,7.81,6.76,7.81,10.22c0.02,0.49-0.17,0.96-0.52,1.29c-0.35,0.34-0.83,0.5-1.32,0.46c-1.89,0-2.46-1.49-2.75-3.17
		l-3.64,1.01c0.61,3.49,2.71,5.58,6.36,5.58c3.38,0,5.84-1.84,5.84-5.39c-0.04-5.93-7.85-7.19-7.85-10.32c0-1.04,0.74-1.6,1.84-1.6
		c1.34,0,2.08,0.9,2.38,2.5l3.54-0.61C75.49,64.33,73.28,62.14,70.01,62.14z M36.1,62.16c-3.87,0-6.47,2.19-6.7,6.25h4.15
		c0.08-1.71,0.49-2.83,2.38-2.83c1.38,0,2.05,0.9,2.05,2.57v1.19C32,71.6,29.1,74.02,29.1,78.41c0,2.56,1.41,4.5,4.24,4.5
		c2.01,0,3.31-0.67,4.87-1.94c0.04,0.49,0.19,1.01,0.23,1.56h3.98c-0.13-0.69-0.22-1.38-0.25-2.08V67.59
		C42.17,63.94,39.97,62.16,36.1,62.16z M96.01,62.16c-3.87,0-6.47,2.19-6.69,6.25h4.16c0.07-1.71,0.49-2.83,2.38-2.83
		c1.38,0,2.05,0.9,2.05,2.57v1.19c-5.99,2.27-8.89,4.68-8.89,9.07c0,2.56,1.41,4.5,4.24,4.5c2,0,3.31-0.67,4.87-1.94
		c0.04,0.49,0.18,1.01,0.22,1.56h3.98c-0.14-0.7-0.23-1.4-0.26-2.12V67.59C102.07,63.94,99.87,62.16,96.01,62.16L96.01,62.16z
		 M56.74,62.53v20.01h4.17V62.53C60.91,62.53,56.74,62.53,56.74,62.53z M38,72.35v5.28c-0.71,1-1.64,1.84-2.79,1.84
		c-1.23,0-1.93-0.52-1.93-1.84C33.28,75.88,34.2,74.5,38,72.35z M97.91,72.35v5.28c-0.71,1-1.64,1.84-2.79,1.84
		c-1.26,0-1.93-0.52-1.93-1.84C93.18,75.88,94.11,74.5,97.91,72.35z"/>
	<path id="path4517" class="st6" d="M111.07,57.09c-0.24,0-0.47,0.09-0.64,0.26c-0.17,0.17-0.26,0.4-0.26,0.64v16.37h0.13
		c0,0,3.89-0.07,5.53-0.94c1.41-0.83,2.64-1.95,3.59-3.28l0.97-1.37l0.31-0.44c0.04-0.04,0.2-0.28,0.29-0.41
		c0.09-0.14,0.49-0.7,0.88-1.27c1.51-2.08,3.44-3.82,5.66-5.1c3.59-1.85,8.35-1.66,8.35-1.66h0.07v-1.84
		c0.02-0.25-0.07-0.49-0.24-0.68s-0.41-0.28-0.66-0.28H111.07z M135.94,65.64c-0.08,0.02-0.16,0.03-0.23,0.03
		c0,0-3.88,0.07-5.55,0.95c-1.41,0.83-2.64,1.94-3.59,3.28l-0.95,1.38c-0.14,0.2-0.28,0.39-0.31,0.44l-0.29,0.41l-0.88,1.27
		c0,0-2.34,3.38-5.66,5.1c-3.44,1.79-7.95,1.67-8.32,1.66v1.84c0,0.24,0.09,0.47,0.26,0.65c0.17,0.17,0.4,0.27,0.64,0.27h23.98
		c0.24,0,0.47-0.1,0.64-0.26c0.17-0.17,0.26-0.4,0.26-0.64V65.64z"/>
</g>
</svg>
