<?xml version="1.0" encoding="utf-8"?>
<!-- Generator: Adobe Illustrator 24.3.0, SVG Export Plug-In . SVG Version: 6.00 Build 0)  -->
<svg version="1.1" id="Layer_1" xmlns="http://www.w3.org/2000/svg" xmlns:xlink="http://www.w3.org/1999/xlink" x="0px" y="0px"
	 viewBox="0 0 140 140" style="enable-background:new 0 0 140 140;" xml:space="preserve">
<style type="text/css">
	.st0{fill:#009D9C;}
	.st1{fill:#2F469C;}
	.st2{fill:#FFFFFF;}
	.st3{fill-rule:evenodd;clip-rule:evenodd;fill:#FF6352;}
	.st4{fill-rule:evenodd;clip-rule:evenodd;fill:#2989D4;}
	.st5{fill-rule:evenodd;clip-rule:evenodd;fill:#5F378B;}
	.st6{fill:#001327;}
	.st7{fill:#BF0000;}
	.st8{fill:#AA1129;}
	.st9{fill:#444444;}
	.st10{fill:#AA1029;}
	.st11{fill:url(#SVGID_1_);}
	.st12{fill:#241C50;}
	.st13{fill:#251D51;}
	.st14{fill:#262C30;}
	.st15{fill:#44B02D;}
	.st16{fill:#0000FF;}
	.st17{fill-rule:evenodd;clip-rule:evenodd;fill:#2A0B57;}
	.st18{fill:#0050AA;}
	.st19{fill:#FFF000;}
	.st20{fill:#E60A14;}
	.st21{fill:#E3032E;}
	.st22{fill:#A8C20B;}
	.st23{fill:#00A082;}
	.st24{fill:#FFCC1B;}
	.st25{fill:#110340;}
	.st26{fill:#2989D4;}
	.st27{fill:url(#SVGID_2_);}
	.st28{fill:#5F378B;}
	.st29{fill:url(#SVGID_3_);}
	.st30{fill:url(#SVGID_4_);}
	.st31{fill:#1A1311;}
	.st32{fill:#00309B;}
	.st33{fill:#1946A9;}
	.st34{fill:#042C86;}
	.st35{fill:#0435A1;}
</style>
<g>
	<path class="st32" d="M58.88,68.97c0.88,0,1.75,0,2.66,0c0.08,0.25,0.16,0.5,0.24,0.76c0.02,0.08,0.05,0.15,0.07,0.23
		c0.18,0.59,0.34,1.18,0.49,1.78c0.23,0.87,0.46,1.74,0.7,2.61c0.08,0.28,0.15,0.56,0.23,0.85c0.05,0.18,0.1,0.36,0.15,0.54
		c0.02,0.08,0.05,0.17,0.07,0.25c0.1,0.37,0.2,0.74,0.33,1.1c0.03-0.08,0.05-0.17,0.08-0.26c0.57-1.76,1.15-3.52,1.73-5.27
		c0.12-0.36,0.24-0.73,0.36-1.09c0.03-0.1,0.06-0.19,0.1-0.29c0.06-0.18,0.12-0.36,0.18-0.54c0.03-0.08,0.05-0.16,0.08-0.24
		c0.02-0.07,0.04-0.14,0.07-0.21c0.06-0.15,0.06-0.15,0.13-0.23c0.15-0.01,0.29-0.01,0.44-0.01c0.09,0,0.18,0,0.27,0
		c0.09,0,0.19,0,0.28,0c0.14,0,0.14,0,0.28,0c0.23,0,0.47,0,0.7,0c0.27,0.75,0.53,1.51,0.78,2.27c0.04,0.11,0.07,0.23,0.11,0.34
		c0.1,0.3,0.19,0.59,0.29,0.89c0.15,0.47,0.31,0.95,0.46,1.42c0.04,0.11,0.07,0.23,0.11,0.34c0.3,0.9,0.59,1.8,0.9,2.7
		c0.13-0.2,0.19-0.32,0.25-0.54c0.03-0.09,0.03-0.09,0.05-0.19c0.02-0.07,0.04-0.14,0.06-0.21c0.02-0.07,0.04-0.14,0.06-0.22
		c0.06-0.24,0.13-0.47,0.19-0.71c0.04-0.16,0.09-0.33,0.13-0.49c0.29-1.05,0.57-2.11,0.85-3.17c0.22-0.82,0.45-1.64,0.68-2.45
		c0.9,0,1.8,0,2.73,0c-0.26,1.02-0.26,1.02-0.38,1.38c-0.03,0.08-0.06,0.17-0.08,0.25c-0.03,0.09-0.06,0.18-0.09,0.27
		c-0.35,1.07-0.68,2.15-1.01,3.22c-0.05,0.16-0.1,0.33-0.15,0.49c-0.07,0.24-0.15,0.48-0.22,0.71c-0.58,1.91-1.19,3.82-1.79,5.73
		c-0.73,0-1.45,0-2.2,0c-0.47-1.28-0.91-2.56-1.34-3.86c-0.2-0.62-0.41-1.23-0.62-1.85c-0.09-0.28-0.19-0.56-0.28-0.84
		c-0.03-0.1-0.07-0.2-0.1-0.3c-0.13-0.4-0.27-0.8-0.4-1.2c-0.17,0.37-0.31,0.75-0.43,1.14c-0.04,0.12-0.08,0.24-0.12,0.36
		c-0.02,0.06-0.04,0.13-0.06,0.19c-0.42,1.31-0.86,2.62-1.3,3.92c-0.04,0.12-0.08,0.24-0.13,0.37c-0.02,0.06-0.04,0.12-0.06,0.18
		c-0.22,0.63-0.43,1.26-0.64,1.9c-0.73,0-1.45,0-2.2,0c-0.26-0.6-0.26-0.6-0.35-0.91c-0.02-0.07-0.04-0.14-0.06-0.21
		c-0.02-0.07-0.04-0.15-0.07-0.22c-0.02-0.08-0.05-0.16-0.07-0.24c-0.08-0.25-0.15-0.5-0.23-0.75c-0.1-0.33-0.2-0.65-0.3-0.98
		c-0.02-0.08-0.05-0.16-0.07-0.24c-0.17-0.55-0.34-1.1-0.51-1.64c-0.17-0.53-0.33-1.07-0.49-1.6c-0.21-0.71-0.43-1.43-0.66-2.14
		c-0.22-0.67-0.43-1.35-0.64-2.02c-0.03-0.08-0.05-0.17-0.08-0.26c-0.02-0.08-0.05-0.16-0.07-0.24c-0.02-0.07-0.04-0.14-0.07-0.21
		C58.88,69.2,58.88,69.2,58.88,68.97z"/>
	<path class="st32" d="M47.64,64.11c3.96,0,7.92,0,12,0c0,0.78,0,1.55,0,2.35c-1.55,0-3.11,0-4.71,0c0,4.81,0,9.62,0,14.58
		c-0.88,0-1.75,0-2.66,0c0-4.79,0-9.57,0-14.5c-2.29-0.04-2.29-0.04-4.63-0.08C47.64,65.69,47.64,64.91,47.64,64.11z"/>
	<path class="st32" d="M117.3,63.95c0.11,0,0.21,0,0.32,0c0.26,0,0.52,0,0.78,0.01c0,0.7,0,1.4,0,2.13c-0.3,0.01-0.3,0.01-0.6,0.02
		c-0.71,0.03-0.71,0.03-1.37,0.28c-0.34,0.4-0.39,0.73-0.4,1.24c0,0.08-0.01,0.16-0.01,0.25c0,0.1-0.01,0.21-0.01,0.32
		c-0.01,0.33-0.02,0.66-0.03,1.01c0.8,0,1.6,0,2.43,0c0,0.31,0,0.62,0,0.94c0,0.1,0,0.2,0,0.3c0,0.08,0,0.15,0,0.23
		c0,0.08,0,0.16,0,0.24c-0.01,0.18-0.01,0.18-0.08,0.26c-0.78,0-1.55,0-2.35,0c0,3.26,0,6.51,0,9.87c-0.83,0-1.65,0-2.51,0
		c0-3.26,0-6.51,0-9.87c-0.45,0-0.9,0-1.37,0c0-0.65,0-1.3,0-1.97c0.45,0,0.9,0,1.37,0c0-0.17-0.01-0.34-0.01-0.51
		c0-0.17,0-0.34-0.01-0.5c0-0.11,0-0.23-0.01-0.34c-0.03-1.17,0.17-2.17,0.99-3.06C115.25,63.99,116.22,63.93,117.3,63.95z"/>
	<path class="st32" d="M100.86,65.55c0.85,0,1.7,0,2.58,0c0,1.18,0,2.36,0,3.57c1.13,0.04,1.13,0.04,2.28,0.08c0,0.65,0,1.3,0,1.97
		c-0.75,0-1.5,0-2.28,0c0,0.89,0.01,1.78,0.01,2.67c0,0.41,0.01,0.83,0.01,1.24c0,0.4,0,0.8,0.01,1.2c0,0.15,0,0.3,0,0.46
		c0,0.21,0,0.43,0,0.64c0,0.06,0,0.13,0,0.19c0.01,0.43,0.1,0.68,0.35,1.04c0.56,0.33,1.26,0.28,1.9,0.3c0,0.7,0,1.4,0,2.13
		c-0.52,0.01-0.52,0.01-1.05,0.01c-0.16,0-0.16,0-0.33,0.01c-0.98,0.01-1.77-0.2-2.51-0.85c-0.76-0.79-1-1.84-0.99-2.91
		c0-0.07,0-0.13,0-0.2c0-0.22,0-0.43,0-0.65c0-0.15,0-0.3,0-0.45c0-0.39,0-0.79,0-1.18c0-0.4,0-0.81,0-1.21c0-0.79,0-1.58,0.01-2.36
		c-0.45-0.03-0.9-0.05-1.37-0.08c0-0.65,0-1.3,0-1.97c0.45-0.03,0.9-0.05,1.37-0.08C100.86,67.94,100.86,66.76,100.86,65.55z"/>
	<path class="st32" d="M107.54,68.97c0.83,0,1.65,0,2.51,0c0,3.98,0,7.97,0,12.07c-0.83,0-1.65,0-2.51,0
		C107.54,77.06,107.54,73.07,107.54,68.97z"/>
	<path class="st32" d="M107.47,64.03c0.88,0,1.75,0,2.66,0c0,0.88,0,1.75,0,2.66c-0.88,0-1.75,0-2.66,0
		C107.47,65.81,107.47,64.94,107.47,64.03z"/>
	<path class="st32" d="M86.89,74.71c-0.01-0.49-0.05-0.97-0.11-1.46c-0.25-1.48-0.96-2.76-2.16-3.68c-1.55-1.02-3.77-1.08-5.4-0.22
		c-1.18,0.7-2.03,1.87-2.37,3.2c-0.02,0.07-0.03,0.14-0.05,0.21c-0.14,0.59-0.23,1.16-0.24,1.77c-0.02,1.68,0.07,3.73,1.33,5.02
		c0.06,0.06,0.06,0.06,0.13,0.12c1.05,1.08,2.34,1.51,3.82,1.55c1.88,0.01,3.38-0.55,4.76-1.85c0-0.05,0-0.1,0-0.15
		c-0.04-0.04-0.07-0.07-0.11-0.1c-0.32-0.26-0.61-0.54-0.9-0.83c-0.21-0.22-0.38-0.39-0.66-0.51c-0.51,0.54-1.14,0.89-1.85,1.09
		c-0.99,0.18-2.02,0.13-2.87-0.44c-0.58-0.48-0.86-1.15-0.99-1.87c-0.01-0.06-0.02-0.11-0.03-0.17c-0.04-0.19-0.07-0.39-0.11-0.58
		c0.92,0,1.83,0,2.75,0c0.47,0,0.93,0,1.4,0c0.46,0,0.92,0,1.37,0c0.17,0,0.35,0,0.52,0c0.25,0,0.5,0,0.75,0c0.12,0,0.12,0,0.23,0
		c0.24,0,0.48,0,0.72-0.01c0.01-0.01,0.01-0.01,0.02-0.02c0,0,0,0,0,0c0,0,0.01-0.01,0.01-0.01c0,0,0,0,0,0c0,0,0.01-0.01,0.01-0.01
		c0,0,0,0,0,0c0,0,0.01-0.01,0.01-0.01c0,0,0,0,0,0c0,0,0-0.01,0.01-0.01c0,0,0,0,0-0.01c0,0,0,0,0-0.01
		c0.02-0.06,0.02-0.15,0.03-0.41c0-0.09,0-0.09,0-0.17C86.91,74.98,86.91,74.84,86.89,74.71z M79.73,71.76
		c0.72-0.79,1.85-1.08,2.87-0.72c0.09,0.05,0.18,0.09,0.27,0.13c0.19,0.09,0.35,0.18,0.53,0.3c0.71,0.7,0.86,1.53,0.99,2.51
		c-1.81,0-3.56,0-5.31,0C79.07,73.14,79.21,72.44,79.73,71.76z"/>
	<path class="st32" d="M127.1,69.2c-0.04,0.05-0.07,0.12-0.1,0.2c-0.87,2.58-1.77,5.15-2.65,7.72c-0.04,0.12-0.1,0.24-0.19,0.47
		c-0.37-1.05-0.7-1.99-1.03-2.92c-0.63-1.79-1.26-3.58-1.9-5.37c-0.01-0.03-0.03-0.07-0.05-0.11h-2.63
		c0.01,0.02,0.01,0.04,0.02,0.06c1.4,3.68,2.81,7.36,4.2,11.04c0.06,0.16,0.1,0.36,0.05,0.51c-0.2,0.6-0.42,1.19-0.65,1.78
		c-0.4,1-0.76,1.23-1.87,1.24c-0.12,0-0.25-0.02-0.36,0.01c-0.01,0-0.02,0.01-0.04,0.02v2.13c0.29,0,0.56,0,0.83,0
		c1.81-0.01,2.84-0.68,3.48-2.32c1.59-4.11,3.16-8.22,4.74-12.33c0.27-0.7,0.54-1.4,0.82-2.14H127.1z"/>
	<path class="st32" d="M98.14,72.75c-0.08-1.21-0.57-2.27-1.46-3.1c-1.59-1.2-4.1-1.2-5.64,0.1c-0.07,0.07-0.14,0.13-0.21,0.2
		c-0.04-0.5-0.04-0.5-0.08-0.99c-0.85,0-1.68,0-2.51,0c0,4.1,0,8.09,0,12.07c0.85,0,1.68,0,2.51,0c0-0.89,0.01-1.79,0.02-2.68
		c0-0.46,0.01-0.91,0.01-1.37c0-0.45,0-0.89,0.01-1.34c0-0.17,0-0.34,0-0.51c0-1.13-0.12-2.44,0.65-3.37
		c0.39-0.41,0.95-0.59,1.5-0.63c0.16,0,0.32,0,0.47,0.01l0,0c0,0,2.3-0.25,2.18,2.99c0,0.21-0.01,0.45-0.02,0.75
		c0,0.17,0,0.34,0,0.5c0,0.44,0.01,0.88,0.01,1.32c0,0.46,0.01,0.91,0.01,1.37c0.01,0.75,0.01,1.51,0.01,2.26c0,0.23,0,0.46,0,0.69
		c0.85,0,1.68,0,2.51,0c0-0.99,0.01-1.99,0.01-2.98c0-0.51,0-1.01,0-1.52c0-0.5,0-0.99,0-1.49c0-0.19,0-0.38,0-0.57
		c0-0.27,0-0.54,0-0.81c0-0.09,0-0.17,0-0.25C98.15,73.19,98.15,72.97,98.14,72.75z"/>
	<path class="st32" d="M32.59,54.01c0.36,0.92,0.7,1.84,1.07,2.75c0.8,1.98,1.6,3.96,2.41,5.94c0.04,0.1,0.07,0.21,0.12,0.36
		c-6.57,0-13.1,0-19.68,0c1.22-3.03,2.43-6.04,3.64-9.05C24.29,54.01,28.44,54.01,32.59,54.01z"/>
	<path class="st32" d="M36.61,63.74c2,2.55,3.95,5.04,5.91,7.54c-0.78,1.34-1.55,2.68-2.33,4.01c-1.26,2.18-2.53,4.35-3.78,6.53
		c-0.14,0.25-0.28,0.32-0.56,0.27c-2.95-0.46-5.9-0.91-8.84-1.36c-0.07-0.01-0.14-0.03-0.25-0.06
		C30.04,75.04,33.31,69.42,36.61,63.74z"/>
	<path class="st32" d="M16.11,63.77c3.28,5.63,6.55,11.26,9.85,16.93c-1.03,0.16-2,0.31-2.96,0.46c-2.07,0.31-4.15,0.62-6.22,0.94
		c-0.24,0.04-0.33-0.03-0.44-0.22c-2-3.46-4.01-6.91-6.01-10.36c-0.09-0.16-0.13-0.27,0-0.43c1.89-2.4,3.78-4.81,5.67-7.22
		C16.02,63.84,16.05,63.82,16.11,63.77z"/>
	<path d="M26.35,78.99c-2.87-4.9-5.72-9.74-8.58-14.62c5.74,0,11.42,0,17.16,0C32.07,69.24,29.23,74.08,26.35,78.99z"/>
	<polygon class="st33" points="17.73,64.39 26.57,68.96 34.96,64.31 	"/>
	<polygon class="st34" points="17.73,64.39 26.57,68.96 26.3,79.04 	"/>
	<polygon class="st35" points="26.3,79.04 26.57,68.96 34.96,64.31 	"/>
</g>
</svg>
