<?xml version="1.0" encoding="utf-8"?>
<!-- Generator: Adobe Illustrator 24.3.0, SVG Export Plug-In . SVG Version: 6.00 Build 0)  -->
<svg version="1.1" id="Layer_1" xmlns="http://www.w3.org/2000/svg" xmlns:xlink="http://www.w3.org/1999/xlink" x="0px" y="0px"
	 viewBox="0 0 140 140" style="enable-background:new 0 0 140 140;" xml:space="preserve">
<style type="text/css">
	.st0{fill:#009D9C;}
	.st1{fill:#2F469C;}
	.st2{fill:#FFFFFF;}
	.st3{fill-rule:evenodd;clip-rule:evenodd;fill:#FF6352;}
	.st4{fill-rule:evenodd;clip-rule:evenodd;fill:#2989D4;}
	.st5{fill-rule:evenodd;clip-rule:evenodd;fill:#5F378B;}
	.st6{fill:#001327;}
	.st7{fill:#BF0000;}
	.st8{fill:#AA1129;}
	.st9{fill:#444444;}
	.st10{fill:#AA1029;}
	.st11{fill:url(#SVGID_1_);}
	.st12{fill:#241C50;}
	.st13{fill:#251D51;}
	.st14{fill:#262C30;}
	.st15{fill:#44B02D;}
	.st16{fill:#0000FF;}
	.st17{fill-rule:evenodd;clip-rule:evenodd;fill:#2A0B57;}
	.st18{fill:#0050AA;}
	.st19{fill:#FFF000;}
	.st20{fill:#E60A14;}
	.st21{fill:#E3032E;}
	.st22{fill:#A8C20B;}
	.st23{fill:#00A082;}
	.st24{fill:#FFCC1B;}
	.st25{fill:#110340;}
	.st26{fill:#2989D4;}
	.st27{fill:url(#SVGID_2_);}
	.st28{fill:#5F378B;}
	.st29{fill:url(#SVGID_3_);}
	.st30{fill:url(#SVGID_4_);}
	.st31{fill:#1A1311;}
	.st32{fill:#00309B;}
	.st33{fill:#1946A9;}
	.st34{fill:#042C86;}
	.st35{fill:#0435A1;}
</style>
<g>
	<rect x="60.01" y="57.12" class="st26" width="6.91" height="3.93"/>
	<linearGradient id="SVGID_1_" gradientUnits="userSpaceOnUse" x1="69.305" y1="78.9299" x2="69.305" y2="57.1317">
		<stop  offset="0" style="stop-color:#5F378B"/>
		<stop  offset="0.5615" style="stop-color:#2989D4"/>
	</linearGradient>
	<path class="st11" d="M107.04,72.01h4.88c0.12-3.18-0.87-10.12-11.85-10.12c0,0-8.76-0.6-11.11,5.46V57.13h-6.98v7.11
		c0,0-1.62-2.19-6.41-2.1c0,0-6.89-0.27-8.64,5.88v-5.5H54.25l-3.49,10.03l-3.37-10.1h-6.6L37.74,72.5l-3.81-9.97l-7.25,0.01
		l6.75,15.87h7.24l3.43-10.41l3.68,10.41h6.86l5.27-11.81V78.4h6.98v-5.08c0,0,1.78,5.65,8.32,5.59c0,0,5.27,0.19,7.05-2.79v2.22
		h6.86v-4.89c0,0,1.28,5.46,11.59,5.46c0,0,8.98,0.6,11.05-5.34c0,0,0.02-0.07,0.04-0.21h-7.69c-0.92,0.92-2.22,1.5-3.66,1.5
		c-2.06,0-3.83-1.18-4.61-2.86h9.22H107.04z M78.06,74.42c-2.07,0-3.75-1.68-3.75-3.75c0-2.07,1.68-3.75,3.75-3.75
		c2.07,0,3.75,1.68,3.75,3.75C81.81,72.75,80.13,74.42,78.06,74.42z M95.76,68.33c0.74-1.76,2.55-3,4.68-3c2.12,0,3.93,1.24,4.68,3
		H95.76z"/>
	<path class="st26" d="M37.8,57.12c5.08-12.45,17.31-21.24,31.59-21.24c14.28,0,26.51,8.78,31.59,21.24h3.57
		C99.29,42.8,85.52,32.55,69.39,32.55S39.49,42.8,34.23,57.12H37.8z"/>
	<path class="st28" d="M101.17,82.42c-4.97,12.7-17.32,21.69-31.77,21.69c-14.46,0-26.81-9-31.77-21.69h-3.55
		c5.14,14.56,19.03,25.02,35.33,25.02s30.19-10.46,35.33-25.02H101.17z"/>
	<g>
		<linearGradient id="SVGID_2_" gradientUnits="userSpaceOnUse" x1="117.2699" y1="82.4239" x2="117.2699" y2="56.5602">
			<stop  offset="0" style="stop-color:#5F378B"/>
			<stop  offset="0.5615" style="stop-color:#2989D4"/>
		</linearGradient>
		<path class="st27" d="M116.67,70.53c0,4.11-0.53,8.1-1.53,11.89h3.44c0.93-3.85,1.42-7.83,1.42-11.89c0-4.8-0.67-9.49-1.97-13.97
			h-3.49C115.92,60.97,116.67,65.66,116.67,70.53z"/>
		<linearGradient id="SVGID_3_" gradientUnits="userSpaceOnUse" x1="22.7301" y1="82.4239" x2="22.7301" y2="56.5602">
			<stop  offset="0" style="stop-color:#5F378B"/>
			<stop  offset="0.5615" style="stop-color:#2989D4"/>
		</linearGradient>
		<path class="st29" d="M23.33,70.53c0-4.87,0.75-9.56,2.13-13.97h-3.49C20.68,61.04,20,65.73,20,70.53c0,4.06,0.48,8.05,1.42,11.89
			h3.44C23.86,78.63,23.33,74.64,23.33,70.53z"/>
	</g>
	<g>
		<path class="st26" d="M112.63,59.8c0,1.5-1.2,2.69-2.74,2.69c-1.53,0-2.75-1.19-2.75-2.69s1.22-2.67,2.77-2.67
			C111.43,57.13,112.63,58.3,112.63,59.8z M107.83,59.8c0,1.19,0.9,2.13,2.08,2.13c1.16,0.02,2.04-0.94,2.04-2.12
			c0-1.19-0.88-2.15-2.07-2.15C108.73,57.67,107.83,58.63,107.83,59.8z M109.47,61.19h-0.62v-2.67c0.24-0.03,0.59-0.08,1.03-0.08
			c0.51,0,0.73,0.08,0.91,0.21c0.16,0.11,0.28,0.31,0.28,0.57c0,0.33-0.24,0.54-0.55,0.64v0.03c0.26,0.08,0.39,0.29,0.47,0.65
			c0.08,0.41,0.15,0.55,0.19,0.65h-0.65c-0.08-0.1-0.13-0.33-0.21-0.65c-0.05-0.28-0.21-0.41-0.55-0.41h-0.29V61.19z M109.49,59.69
			h0.29c0.34,0,0.62-0.11,0.62-0.39c0-0.24-0.18-0.41-0.57-0.41c-0.16,0-0.28,0.02-0.34,0.03V59.69z"/>
	</g>
</g>
</svg>
